<svg width="279" height="94" viewBox="0 0 279 94" fill="none" xmlns="http://www.w3.org/2000/svg">
<g filter="url(#filter0_dii_15_40)">
<path d="M25.05 77C20.314 77 16.602 75.72 13.914 73.16C11.29 70.6 9.978 67.016 9.978 62.408C9.978 57.8 11.514 54.472 14.586 52.424C17.658 50.312 21.594 49.256 26.394 49.256C29.21 49.256 31.77 49.448 34.074 49.832C36.378 50.216 38.458 50.76 40.314 51.464H40.602V50.024C40.602 48.552 40.058 47.4 38.97 46.568C37.882 45.672 36.506 45.256 34.842 45.32C33.242 45.32 31.866 45.416 30.714 45.608C29.626 45.8 28.25 46.12 26.586 46.568C23.514 47.336 20.858 47.272 18.618 46.376C16.378 45.48 14.842 43.72 14.01 41.096C13.242 38.344 13.402 36.04 14.49 34.184C15.642 32.328 17.37 30.888 19.674 29.864C21.658 28.904 23.866 28.104 26.298 27.464C28.794 26.824 31.482 26.504 34.362 26.504C42.746 26.504 48.89 28.552 52.794 32.648C56.762 36.68 58.746 43.464 58.746 53V67.88C58.746 70.504 57.946 72.68 56.346 74.408C54.746 76.136 52.538 77 49.722 77C46.65 77 44.346 76.136 42.81 74.408C41.338 72.68 40.602 70.568 40.602 68.072V65.864H38.682C38.682 67.528 38.362 69.224 37.722 70.952C37.146 72.68 35.898 74.12 33.978 75.272C32.122 76.424 29.146 77 25.05 77ZM26.01 55.976C26.01 57.064 26.394 57.832 27.162 58.28C27.994 58.728 29.754 58.952 32.442 58.952C34.874 58.952 36.57 58.728 37.53 58.28C38.49 57.832 38.97 57.064 38.97 55.976C38.97 54.952 38.49 54.248 37.53 53.864C36.57 53.416 34.874 53.192 32.442 53.192C29.754 53.192 27.994 53.416 27.162 53.864C26.394 54.248 26.01 54.952 26.01 55.976ZM97.029 77C93.829 77 91.237 76.328 89.253 74.984C87.333 73.64 85.925 71.88 85.029 69.704C84.133 67.464 83.621 65.064 83.493 62.504H81.669V67.88C81.669 70.504 80.869 72.68 79.269 74.408C77.669 76.136 75.461 77 72.645 77C69.701 77 67.461 76.136 65.925 74.408C64.453 72.68 63.717 70.504 63.717 67.88V12.584C63.717 9.832 64.453 7.56 65.925 5.768C67.397 3.912 69.637 2.984 72.645 2.984C75.653 2.984 77.893 3.912 79.365 5.768C80.901 7.56 81.669 9.768 81.669 12.392V41.48L82.053 41.576C82.693 38.888 83.493 36.424 84.453 34.184C85.477 31.944 86.981 30.152 88.965 28.808C90.949 27.464 93.701 26.792 97.221 26.792C102.661 26.792 106.821 29.032 109.701 33.512C112.581 37.928 114.021 43.848 114.021 51.272C114.021 59.784 112.549 66.216 109.605 70.568C106.725 74.856 102.533 77 97.029 77ZM81.477 50.504C81.477 50.824 81.477 51.144 81.477 51.464C81.541 51.72 81.605 52.008 81.669 52.328C81.989 53.672 82.757 54.696 83.973 55.4C85.253 56.04 87.237 56.36 89.925 56.36C93.125 56.36 95.301 55.88 96.453 54.92C97.669 53.96 98.277 52.488 98.277 50.504C98.277 48.456 97.701 46.952 96.549 45.992C95.397 45.032 93.221 44.552 90.021 44.552C87.269 44.552 85.253 44.904 83.973 45.608C82.757 46.248 81.989 47.272 81.669 48.68C81.605 48.936 81.541 49.224 81.477 49.544C81.477 49.8 81.477 50.12 81.477 50.504ZM142.565 77.192C135.077 77.192 129.093 74.984 124.613 70.568C120.197 66.088 117.989 59.784 117.989 51.656C117.989 46.664 119.013 42.28 121.061 38.504C123.109 34.728 125.957 31.784 129.605 29.672C133.317 27.496 137.637 26.408 142.565 26.408C148.069 26.408 152.645 27.496 156.293 29.672C159.941 31.784 162.661 34.728 164.453 38.504C166.309 42.28 167.237 46.664 167.237 51.656C167.237 59.784 165.189 66.088 161.093 70.568C157.061 74.984 150.885 77.192 142.565 77.192ZM129.413 50.024C129.413 52.008 130.405 53.416 132.389 54.248C134.373 55.016 137.765 55.4 142.565 55.4C147.365 55.4 150.757 55.016 152.741 54.248C154.725 53.416 155.717 52.008 155.717 50.024C155.717 48.104 154.725 46.76 152.741 45.992C150.757 45.224 147.365 44.84 142.565 44.84C137.765 44.84 134.373 45.224 132.389 45.992C130.405 46.76 129.413 48.104 129.413 50.024ZM186.327 77C181.847 77 178.199 75.304 175.383 71.912C172.567 68.52 171.127 63.752 171.063 57.608L170.967 35.432C170.967 32.68 171.799 30.536 173.463 29C175.191 27.4 177.527 26.6 180.471 26.6C183.287 26.6 185.559 27.4 187.287 29C189.015 30.536 189.879 32.68 189.879 35.432V55.496C189.879 60.296 191.767 62.696 195.543 62.696C197.399 62.696 198.647 62.024 199.287 60.68C199.927 59.272 200.247 57.48 200.247 55.304V35.432C200.247 32.936 201.111 30.856 202.839 29.192C204.567 27.464 206.807 26.6 209.559 26.6C212.439 26.6 214.647 27.464 216.183 29.192C217.783 30.856 218.583 32.936 218.583 35.432V66.92C218.583 69.992 217.879 72.456 216.471 74.312C215.127 76.104 212.919 77 209.847 77C206.839 77 204.471 76.104 202.743 74.312C201.079 72.456 200.247 69.992 200.247 66.92V65.288H198.519C198.519 69 197.399 71.88 195.159 73.928C192.983 75.976 190.039 77 186.327 77ZM251.401 77.288C248.009 77.288 244.937 76.52 242.185 74.984C239.497 73.448 237.385 71.272 235.849 68.456C234.313 65.576 233.545 62.216 233.545 58.376V41.48L229.993 41.96C228.073 42.216 226.377 41.544 224.905 39.944C223.433 38.344 222.697 36.328 222.697 33.896C222.697 31.464 223.433 29.48 224.905 27.944C226.377 26.344 228.073 25.672 229.993 25.928L233.545 26.408L233.449 19.88C233.385 17.32 234.121 15.304 235.657 13.832C237.193 12.296 239.433 11.528 242.377 11.528C245.321 11.528 247.593 12.296 249.193 13.832C250.793 15.304 251.529 17.32 251.401 19.88L251.209 26.408L256.297 25.736C259.753 25.224 262.377 25.864 264.169 27.656C265.961 29.384 266.857 31.464 266.857 33.896C266.857 36.328 265.961 38.44 264.169 40.232C262.441 41.96 259.913 42.6 256.585 42.152L251.209 41.48V55.784C251.209 56.616 251.497 57.384 252.073 58.088C252.649 58.728 253.353 58.92 254.185 58.664C255.145 58.408 256.137 57.864 257.161 57.032C258.249 56.2 259.625 55.784 261.289 55.784C263.785 55.784 265.705 56.68 267.049 58.472C268.393 60.264 269.065 62.472 269.065 65.096C269.065 67.144 268.329 69.128 266.857 71.048C265.449 72.904 263.433 74.408 260.809 75.56C258.185 76.712 255.049 77.288 251.401 77.288Z" fill="#ECA6AF"/>
</g>
<defs>
<filter id="filter0_dii_15_40" x="0.378027" y="-2.01599" width="278.287" height="95.904" filterUnits="userSpaceOnUse" color-interpolation-filters="sRGB">
<feFlood flood-opacity="0" result="BackgroundImageFix"/>
<feColorMatrix in="SourceAlpha" type="matrix" values="0 0 0 0 0 0 0 0 0 0 0 0 0 0 0 0 0 0 127 0" result="hardAlpha"/>
<feOffset dy="7"/>
<feGaussianBlur stdDeviation="4.8"/>
<feComposite in2="hardAlpha" operator="out"/>
<feColorMatrix type="matrix" values="0 0 0 0 0 0 0 0 0 0 0 0 0 0 0 0 0 0 0.26 0"/>
<feBlend mode="normal" in2="BackgroundImageFix" result="effect1_dropShadow_15_40"/>
<feBlend mode="normal" in="SourceGraphic" in2="effect1_dropShadow_15_40" result="shape"/>
<feColorMatrix in="SourceAlpha" type="matrix" values="0 0 0 0 0 0 0 0 0 0 0 0 0 0 0 0 0 0 127 0" result="hardAlpha"/>
<feOffset dx="-4" dy="5"/>
<feGaussianBlur stdDeviation="4.35"/>
<feComposite in2="hardAlpha" operator="arithmetic" k2="-1" k3="1"/>
<feColorMatrix type="matrix" values="0 0 0 0 1 0 0 0 0 1 0 0 0 0 1 0 0 0 1 0"/>
<feBlend mode="normal" in2="shape" result="effect2_innerShadow_15_40"/>
<feColorMatrix in="SourceAlpha" type="matrix" values="0 0 0 0 0 0 0 0 0 0 0 0 0 0 0 0 0 0 127 0" result="hardAlpha"/>
<feOffset dy="-5"/>
<feGaussianBlur stdDeviation="5.75"/>
<feComposite in2="hardAlpha" operator="arithmetic" k2="-1" k3="1"/>
<feColorMatrix type="matrix" values="0 0 0 0 0.951228 0 0 0 0 0.835201 0 0 0 0 0.849705 0 0 0 1 0"/>
<feBlend mode="normal" in2="effect2_innerShadow_15_40" result="effect3_innerShadow_15_40"/>
</filter>
</defs>
</svg>
