<svg width="369" height="86" viewBox="0 0 369 86" fill="none" xmlns="http://www.w3.org/2000/svg">
<g filter="url(#filter0_dii_15_43)">
<path d="M35.1859 69.288C30.1939 69.288 25.7779 68.264 21.9379 66.216C18.0979 64.104 15.0899 61.128 12.9139 57.288C10.7379 53.448 9.64988 48.936 9.64988 43.752C9.64988 38.568 10.7379 34.056 12.9139 30.216C15.0899 26.376 18.0979 23.4 21.9379 21.288C25.8419 19.176 30.3219 18.12 35.3779 18.12C39.3459 18.12 42.8339 18.536 45.8419 19.368C48.9139 20.2 51.3139 21.448 53.0419 23.112C54.8339 24.776 55.7299 26.856 55.7299 29.352C55.7299 32.36 54.9619 34.728 53.4259 36.456C51.8899 38.12 49.6819 38.952 46.8019 38.952C44.8819 38.952 42.9619 38.664 41.0419 38.088C39.1859 37.512 36.7859 37.224 33.8419 37.224C31.4099 37.224 29.3619 37.608 27.6979 38.376C26.0339 39.144 25.2019 40.552 25.2019 42.6C25.2019 44.712 26.0339 46.248 27.6979 47.208C29.3619 48.104 31.4099 48.552 33.8419 48.552C35.8259 48.552 37.4899 48.36 38.8339 47.976C40.1779 47.592 41.4579 47.208 42.6739 46.824C43.8899 46.44 45.2659 46.248 46.8019 46.248C50.0659 46.248 52.4659 47.208 54.0019 49.128C55.6019 50.984 56.4019 53.384 56.4019 56.328C56.4019 58.824 55.4739 61.064 53.6179 63.048C51.7619 64.968 49.2339 66.504 46.0339 67.656C42.8339 68.744 39.2179 69.288 35.1859 69.288ZM83.4559 69.192C75.9679 69.192 69.9839 66.984 65.5039 62.568C61.0879 58.088 58.8799 51.784 58.8799 43.656C58.8799 38.664 59.9039 34.28 61.9519 30.504C63.9999 26.728 66.8479 23.784 70.4959 21.672C74.2079 19.496 78.5279 18.408 83.4559 18.408C88.9599 18.408 93.5359 19.496 97.1839 21.672C100.832 23.784 103.552 26.728 105.344 30.504C107.2 34.28 108.128 38.664 108.128 43.656C108.128 51.784 106.08 58.088 101.984 62.568C97.9519 66.984 91.7759 69.192 83.4559 69.192ZM70.3039 42.024C70.3039 44.008 71.2959 45.416 73.2799 46.248C75.2639 47.016 78.6559 47.4 83.4559 47.4C88.2559 47.4 91.6479 47.016 93.6319 46.248C95.6159 45.416 96.6079 44.008 96.6079 42.024C96.6079 40.104 95.6159 38.76 93.6319 37.992C91.6479 37.224 88.2559 36.84 83.4559 36.84C78.6559 36.84 75.2639 37.224 73.2799 37.992C71.2959 38.76 70.3039 40.104 70.3039 42.024ZM122.107 69C119.291 69 117.019 68.168 115.291 66.504C113.627 64.776 112.795 62.664 112.795 60.168V28.392C112.795 25.704 113.595 23.432 115.195 21.576C116.795 19.72 119.099 18.792 122.107 18.792C125.051 18.792 127.291 19.72 128.827 21.576C130.363 23.432 131.131 25.768 131.131 28.584V33.384H132.859C132.859 29.736 133.499 26.856 134.779 24.744C136.123 22.632 137.819 21.128 139.867 20.232C141.915 19.272 143.963 18.792 146.011 18.792C150.939 18.792 154.555 20.584 156.859 24.168C159.163 27.688 160.315 32.712 160.315 39.24V60.168C160.315 62.664 159.483 64.776 157.819 66.504C156.155 68.168 153.915 69 151.099 69C148.219 69 145.915 68.168 144.187 66.504C142.523 64.776 141.691 62.664 141.691 60.168V43.176C141.691 40.872 141.243 39.08 140.347 37.8C139.515 36.52 138.267 35.88 136.603 35.88C134.683 35.88 133.275 36.584 132.379 37.992C131.547 39.4 131.131 41.192 131.131 43.368V60.168C131.131 62.664 130.331 64.776 128.731 66.504C127.131 68.168 124.923 69 122.107 69ZM191.26 69.288C187.868 69.288 184.796 68.52 182.044 66.984C179.356 65.448 177.244 63.272 175.708 60.456C174.172 57.576 173.404 54.216 173.404 50.376V33.48L169.852 33.96C167.932 34.216 166.236 33.544 164.764 31.944C163.292 30.344 162.556 28.328 162.556 25.896C162.556 23.464 163.292 21.48 164.764 19.944C166.236 18.344 167.932 17.672 169.852 17.928L173.404 18.408L173.308 11.88C173.244 9.32 173.98 7.304 175.516 5.832C177.052 4.296 179.292 3.528 182.236 3.528C185.18 3.528 187.452 4.296 189.052 5.832C190.652 7.304 191.388 9.32 191.26 11.88L191.068 18.408L196.156 17.736C199.612 17.224 202.236 17.864 204.028 19.656C205.82 21.384 206.716 23.464 206.716 25.896C206.716 28.328 205.82 30.44 204.028 32.232C202.3 33.96 199.772 34.6 196.444 34.152L191.068 33.48V47.784C191.068 48.616 191.356 49.384 191.932 50.088C192.508 50.728 193.212 50.92 194.044 50.664C195.004 50.408 195.996 49.864 197.02 49.032C198.108 48.2 199.484 47.784 201.148 47.784C203.644 47.784 205.564 48.68 206.908 50.472C208.252 52.264 208.924 54.472 208.924 57.096C208.924 59.144 208.188 61.128 206.716 63.048C205.308 64.904 203.292 66.408 200.668 67.56C198.044 68.712 194.908 69.288 191.26 69.288ZM227.409 69C222.673 69 218.961 67.72 216.273 65.16C213.649 62.6 212.337 59.016 212.337 54.408C212.337 49.8 213.873 46.472 216.945 44.424C220.017 42.312 223.953 41.256 228.753 41.256C231.569 41.256 234.129 41.448 236.433 41.832C238.737 42.216 240.817 42.76 242.673 43.464H242.961V42.024C242.961 40.552 242.417 39.4 241.329 38.568C240.241 37.672 238.865 37.256 237.201 37.32C235.601 37.32 234.225 37.416 233.073 37.608C231.985 37.8 230.609 38.12 228.945 38.568C225.873 39.336 223.217 39.272 220.977 38.376C218.737 37.48 217.201 35.72 216.369 33.096C215.601 30.344 215.761 28.04 216.849 26.184C218.001 24.328 219.729 22.888 222.033 21.864C224.017 20.904 226.225 20.104 228.657 19.464C231.153 18.824 233.841 18.504 236.721 18.504C245.105 18.504 251.249 20.552 255.153 24.648C259.121 28.68 261.105 35.464 261.105 45V59.88C261.105 62.504 260.305 64.68 258.705 66.408C257.105 68.136 254.897 69 252.081 69C249.009 69 246.705 68.136 245.169 66.408C243.697 64.68 242.961 62.568 242.961 60.072V57.864H241.041C241.041 59.528 240.721 61.224 240.081 62.952C239.505 64.68 238.257 66.12 236.337 67.272C234.481 68.424 231.505 69 227.409 69ZM228.369 47.976C228.369 49.064 228.753 49.832 229.521 50.28C230.353 50.728 232.113 50.952 234.801 50.952C237.233 50.952 238.929 50.728 239.889 50.28C240.849 49.832 241.329 49.064 241.329 47.976C241.329 46.952 240.849 46.248 239.889 45.864C238.929 45.416 237.233 45.192 234.801 45.192C232.113 45.192 230.353 45.416 229.521 45.864C228.753 46.248 228.369 46.952 228.369 47.976ZM289.811 69.288C284.819 69.288 280.403 68.264 276.563 66.216C272.723 64.104 269.715 61.128 267.539 57.288C265.363 53.448 264.275 48.936 264.275 43.752C264.275 38.568 265.363 34.056 267.539 30.216C269.715 26.376 272.723 23.4 276.563 21.288C280.467 19.176 284.947 18.12 290.003 18.12C293.971 18.12 297.459 18.536 300.467 19.368C303.539 20.2 305.939 21.448 307.667 23.112C309.459 24.776 310.355 26.856 310.355 29.352C310.355 32.36 309.587 34.728 308.051 36.456C306.515 38.12 304.307 38.952 301.427 38.952C299.507 38.952 297.587 38.664 295.667 38.088C293.811 37.512 291.411 37.224 288.467 37.224C286.035 37.224 283.987 37.608 282.323 38.376C280.659 39.144 279.827 40.552 279.827 42.6C279.827 44.712 280.659 46.248 282.323 47.208C283.987 48.104 286.035 48.552 288.467 48.552C290.451 48.552 292.115 48.36 293.459 47.976C294.803 47.592 296.083 47.208 297.299 46.824C298.515 46.44 299.891 46.248 301.427 46.248C304.691 46.248 307.091 47.208 308.627 49.128C310.227 50.984 311.027 53.384 311.027 56.328C311.027 58.824 310.099 61.064 308.243 63.048C306.387 64.968 303.859 66.504 300.659 67.656C297.459 68.744 293.843 69.288 289.811 69.288ZM341.729 69.288C338.337 69.288 335.265 68.52 332.513 66.984C329.825 65.448 327.713 63.272 326.177 60.456C324.641 57.576 323.873 54.216 323.873 50.376V33.48L320.321 33.96C318.401 34.216 316.705 33.544 315.233 31.944C313.761 30.344 313.025 28.328 313.025 25.896C313.025 23.464 313.761 21.48 315.233 19.944C316.705 18.344 318.401 17.672 320.321 17.928L323.873 18.408L323.777 11.88C323.713 9.32 324.449 7.304 325.985 5.832C327.521 4.296 329.761 3.528 332.705 3.528C335.649 3.528 337.921 4.296 339.521 5.832C341.121 7.304 341.857 9.32 341.729 11.88L341.537 18.408L346.625 17.736C350.081 17.224 352.705 17.864 354.497 19.656C356.289 21.384 357.185 23.464 357.185 25.896C357.185 28.328 356.289 30.44 354.497 32.232C352.769 33.96 350.241 34.6 346.913 34.152L341.537 33.48V47.784C341.537 48.616 341.825 49.384 342.401 50.088C342.977 50.728 343.681 50.92 344.513 50.664C345.473 50.408 346.465 49.864 347.489 49.032C348.577 48.2 349.953 47.784 351.617 47.784C354.113 47.784 356.033 48.68 357.377 50.472C358.721 52.264 359.393 54.472 359.393 57.096C359.393 59.144 358.657 61.128 357.185 63.048C355.777 64.904 353.761 66.408 351.137 67.56C348.513 68.712 345.377 69.288 341.729 69.288Z" fill="#ECA6AF"/>
</g>
<defs>
<filter id="filter0_dii_15_43" x="0.049902" y="-1.47205" width="368.943" height="87.36" filterUnits="userSpaceOnUse" color-interpolation-filters="sRGB">
<feFlood flood-opacity="0" result="BackgroundImageFix"/>
<feColorMatrix in="SourceAlpha" type="matrix" values="0 0 0 0 0 0 0 0 0 0 0 0 0 0 0 0 0 0 127 0" result="hardAlpha"/>
<feOffset dy="7"/>
<feGaussianBlur stdDeviation="4.8"/>
<feComposite in2="hardAlpha" operator="out"/>
<feColorMatrix type="matrix" values="0 0 0 0 0 0 0 0 0 0 0 0 0 0 0 0 0 0 0.26 0"/>
<feBlend mode="normal" in2="BackgroundImageFix" result="effect1_dropShadow_15_43"/>
<feBlend mode="normal" in="SourceGraphic" in2="effect1_dropShadow_15_43" result="shape"/>
<feColorMatrix in="SourceAlpha" type="matrix" values="0 0 0 0 0 0 0 0 0 0 0 0 0 0 0 0 0 0 127 0" result="hardAlpha"/>
<feOffset dx="-4" dy="5"/>
<feGaussianBlur stdDeviation="4.35"/>
<feComposite in2="hardAlpha" operator="arithmetic" k2="-1" k3="1"/>
<feColorMatrix type="matrix" values="0 0 0 0 1 0 0 0 0 1 0 0 0 0 1 0 0 0 1 0"/>
<feBlend mode="normal" in2="shape" result="effect2_innerShadow_15_43"/>
<feColorMatrix in="SourceAlpha" type="matrix" values="0 0 0 0 0 0 0 0 0 0 0 0 0 0 0 0 0 0 127 0" result="hardAlpha"/>
<feOffset dy="-5"/>
<feGaussianBlur stdDeviation="5.75"/>
<feComposite in2="hardAlpha" operator="arithmetic" k2="-1" k3="1"/>
<feColorMatrix type="matrix" values="0 0 0 0 0.951228 0 0 0 0 0.835201 0 0 0 0 0.849705 0 0 0 1 0"/>
<feBlend mode="normal" in2="effect2_innerShadow_15_43" result="effect3_innerShadow_15_43"/>
</filter>
</defs>
</svg>
