<svg width="134" height="57" viewBox="0 0 134 57" fill="none" xmlns="http://www.w3.org/2000/svg">
<g filter="url(#filter0_dii_67_83)">
<path d="M14.1607 40C12.7527 40 11.6327 39.584 10.8007 38.752C10.0007 37.888 9.60069 36.832 9.60069 35.584V7.792C9.60069 6.448 10.0007 5.312 10.8007 4.384C11.6327 3.456 12.8007 2.992 14.3047 2.992C15.7767 2.992 16.8807 3.456 17.6167 4.384C18.3847 5.312 18.7687 6.464 18.7687 7.84V22.192H19.6327C19.6327 20.368 19.9527 18.928 20.5927 17.872C21.2647 16.816 22.1127 16.064 23.1367 15.616C24.1927 15.136 25.2647 14.896 26.3527 14.896C28.2727 14.896 29.7287 15.376 30.7207 16.336C31.7447 17.264 32.4327 18.512 32.7847 20.08C33.1687 21.648 33.3607 23.36 33.3607 25.216V35.584C33.3607 36.896 32.9287 37.968 32.0647 38.8C31.2327 39.6 30.1127 40 28.7047 40C27.2647 40 26.1287 39.6 25.2967 38.8C24.4647 37.968 24.0487 36.896 24.0487 35.584V27.088C24.0487 25.936 23.8247 25.04 23.3767 24.4C22.9287 23.76 22.2727 23.44 21.4087 23.44C20.5447 23.44 19.8887 23.792 19.4407 24.496C18.9927 25.2 18.7687 26.096 18.7687 27.184V35.584C18.7687 36.832 18.3527 37.888 17.5207 38.752C16.7207 39.584 15.6007 40 14.1607 40ZM47.4779 40.096C43.7339 40.096 40.7419 38.992 38.5019 36.784C36.2939 34.544 35.1899 31.392 35.1899 27.328C35.1899 24.832 35.7019 22.64 36.7259 20.752C37.7499 18.864 39.1739 17.392 40.9979 16.336C42.8539 15.248 45.0139 14.704 47.4779 14.704C50.2299 14.704 52.5179 15.248 54.3419 16.336C56.1659 17.392 57.5259 18.864 58.4219 20.752C59.3499 22.64 59.8139 24.832 59.8139 27.328C59.8139 31.392 58.7899 34.544 56.7419 36.784C54.7259 38.992 51.6379 40.096 47.4779 40.096ZM40.9019 26.512C40.9019 27.504 41.3979 28.208 42.3899 28.624C43.3819 29.008 45.0779 29.2 47.4779 29.2C49.8779 29.2 51.5739 29.008 52.5659 28.624C53.5579 28.208 54.0539 27.504 54.0539 26.512C54.0539 25.552 53.5579 24.88 52.5659 24.496C51.5739 24.112 49.8779 23.92 47.4779 23.92C45.0779 23.92 43.3819 24.112 42.3899 24.496C41.3979 24.88 40.9019 25.552 40.9019 26.512ZM66.6596 40C65.2196 40 64.0676 39.584 63.2036 38.752C62.3716 37.888 61.9556 36.832 61.9556 35.584V19.696C61.9556 18.352 62.3556 17.216 63.1556 16.288C63.9876 15.36 65.1556 14.896 66.6596 14.896C68.1316 14.896 69.2356 15.36 69.9716 16.288C70.7076 17.216 71.0756 18.384 71.0756 19.792V22.192H71.9396C71.9396 19.472 72.5156 17.584 73.6676 16.528C74.8196 15.44 76.2436 14.896 77.9396 14.896C80.1156 14.896 81.7156 15.568 82.7396 16.912C83.7636 18.256 84.2756 20.016 84.2756 22.192H85.1396C85.1396 20.368 85.4436 18.928 86.0516 17.872C86.6596 16.816 87.4276 16.064 88.3556 15.616C89.3156 15.136 90.3076 14.896 91.3316 14.896C93.4116 14.896 94.9316 15.392 95.8916 16.384C96.8836 17.376 97.5236 18.704 97.8116 20.368C98.0996 22.032 98.2436 23.904 98.2436 25.984V35.584C98.2436 36.832 97.8116 37.888 96.9476 38.752C96.1156 39.584 94.9956 40 93.5876 40C92.1796 40 91.0436 39.584 90.1796 38.752C89.3156 37.888 88.8836 36.832 88.8836 35.584V27.088C88.8836 25.936 88.7396 25.04 88.4516 24.4C88.1636 23.76 87.5876 23.44 86.7236 23.44C85.7956 23.44 85.1876 23.792 84.8996 24.496C84.6436 25.2 84.5156 26.096 84.5156 27.184V35.584C84.5156 36.832 84.1156 37.888 83.3156 38.752C82.5156 39.584 81.4116 40 80.0036 40C78.5636 40 77.4116 39.584 76.5476 38.752C75.7156 37.888 75.2996 36.832 75.2996 35.584V27.088C75.2996 25.936 75.1556 25.04 74.8676 24.4C74.5796 23.76 74.0196 23.44 73.1876 23.44C72.2596 23.44 71.6676 23.792 71.4116 24.496C71.1876 25.2 71.0756 26.096 71.0756 27.184V35.584C71.0756 36.832 70.6916 37.888 69.9236 38.752C69.1556 39.584 68.0676 40 66.6596 40ZM100.534 27.52C100.534 24.992 101.03 22.768 102.022 20.848C103.046 18.928 104.486 17.424 106.342 16.336C108.23 15.248 110.47 14.704 113.062 14.704C115.078 14.704 116.886 15.072 118.486 15.808C120.118 16.544 121.398 17.536 122.326 18.784C123.254 20 123.718 21.344 123.718 22.816C123.718 24.352 123.27 25.44 122.374 26.08C121.478 26.72 120.15 27.04 118.39 27.04H108.31C108.31 27.872 108.63 28.56 109.27 29.104C109.942 29.648 111.062 29.92 112.63 29.92C113.43 29.92 114.166 29.84 114.838 29.68C115.542 29.52 116.246 29.376 116.95 29.248C117.686 29.088 118.502 29.008 119.398 29.008C120.678 29.008 121.734 29.472 122.566 30.4C123.398 31.296 123.814 32.544 123.814 34.144C123.814 36.032 122.838 37.504 120.886 38.56C118.966 39.616 116.438 40.144 113.302 40.144C111.094 40.144 109.014 39.712 107.062 38.848C105.142 37.984 103.574 36.624 102.358 34.768C101.142 32.88 100.534 30.464 100.534 27.52ZM116.086 25.456C116.566 25.456 116.726 25.232 116.566 24.784C116.438 24.336 116.054 23.872 115.414 23.392C114.774 22.912 113.846 22.672 112.63 22.672C111.222 22.672 110.166 22.976 109.462 23.584C108.79 24.192 108.454 24.816 108.454 25.456H116.086Z" fill="#ECA6AF"/>
</g>
<defs>
<filter id="filter0_dii_67_83" x="0.000707626" y="-2.00806" width="133.413" height="58.7521" filterUnits="userSpaceOnUse" color-interpolation-filters="sRGB">
<feFlood flood-opacity="0" result="BackgroundImageFix"/>
<feColorMatrix in="SourceAlpha" type="matrix" values="0 0 0 0 0 0 0 0 0 0 0 0 0 0 0 0 0 0 127 0" result="hardAlpha"/>
<feOffset dy="7"/>
<feGaussianBlur stdDeviation="4.8"/>
<feComposite in2="hardAlpha" operator="out"/>
<feColorMatrix type="matrix" values="0 0 0 0 0 0 0 0 0 0 0 0 0 0 0 0 0 0 0.26 0"/>
<feBlend mode="normal" in2="BackgroundImageFix" result="effect1_dropShadow_67_83"/>
<feBlend mode="normal" in="SourceGraphic" in2="effect1_dropShadow_67_83" result="shape"/>
<feColorMatrix in="SourceAlpha" type="matrix" values="0 0 0 0 0 0 0 0 0 0 0 0 0 0 0 0 0 0 127 0" result="hardAlpha"/>
<feOffset dx="-4" dy="5"/>
<feGaussianBlur stdDeviation="4.35"/>
<feComposite in2="hardAlpha" operator="arithmetic" k2="-1" k3="1"/>
<feColorMatrix type="matrix" values="0 0 0 0 1 0 0 0 0 1 0 0 0 0 1 0 0 0 1 0"/>
<feBlend mode="normal" in2="shape" result="effect2_innerShadow_67_83"/>
<feColorMatrix in="SourceAlpha" type="matrix" values="0 0 0 0 0 0 0 0 0 0 0 0 0 0 0 0 0 0 127 0" result="hardAlpha"/>
<feOffset dy="-5"/>
<feGaussianBlur stdDeviation="5.75"/>
<feComposite in2="hardAlpha" operator="arithmetic" k2="-1" k3="1"/>
<feColorMatrix type="matrix" values="0 0 0 0 0.951228 0 0 0 0 0.835201 0 0 0 0 0.849705 0 0 0 1 0"/>
<feBlend mode="normal" in2="effect2_innerShadow_67_83" result="effect3_innerShadow_67_83"/>
</filter>
</defs>
</svg>
