<svg width="364" height="95" viewBox="0 0 364 95" fill="none" xmlns="http://www.w3.org/2000/svg">
<g filter="url(#filter0_dii_15_96)">
<path d="M23.3684 33.704L37.7684 13.352C40.3284 9.704 43.1124 7.656 46.1204 7.20799C49.1284 6.696 51.8484 7.4 54.2804 9.32C55.8804 10.536 56.9364 12.168 57.4484 14.216C57.9604 16.264 57.8004 18.44 56.9684 20.744C56.1364 23.048 54.4724 25.224 51.9764 27.272L35.9444 40.232L35.9444 42.248C37.9924 42.248 40.3924 42.504 43.1444 43.016C45.8964 43.528 48.3924 44.68 50.6324 46.472C52.4244 47.816 53.9604 49.352 55.2404 51.08C56.5844 52.808 57.6404 54.952 58.4084 57.512C59.1764 60.008 59.5604 63.176 59.5604 67.016C59.5604 70.152 58.6964 72.68 56.9684 74.6C55.3044 76.456 52.8084 77.384 49.4804 77.384C46.1524 77.384 43.5924 76.456 41.8004 74.6C40.0724 72.68 39.2084 70.152 39.2084 67.016C39.2084 63.496 38.6324 60.712 37.4804 58.664C36.3924 56.552 34.9204 55.016 33.0644 54.056C31.2084 53.096 29.1924 52.616 27.0164 52.616L22.3124 52.616L22.3124 67.688C22.3124 70.44 21.3524 72.712 19.4324 74.504C17.5764 76.296 15.1764 77.192 12.2324 77.192C9.28838 77.192 6.85638 76.296 4.93638 74.504C3.08038 72.712 2.15237 70.44 2.15237 67.688L2.15237 16.904C2.15237 14.088 3.08038 11.72 4.93638 9.8C6.79238 7.88 9.22438 6.92 12.2324 6.92C15.4324 6.92 17.8964 7.88 19.6244 9.8C21.4164 11.656 22.3124 13.96 22.3124 16.712L22.3124 33.512L23.3684 33.704ZM77.6594 77C72.9234 77 69.2114 75.72 66.5234 73.16C63.8994 70.6 62.5874 67.016 62.5874 62.408C62.5874 57.8 64.1234 54.472 67.1954 52.424C70.2674 50.312 74.2034 49.256 79.0034 49.256C81.8194 49.256 84.3794 49.448 86.6834 49.832C88.9874 50.216 91.0674 50.76 92.9234 51.464L93.2114 51.464L93.2114 50.024C93.2114 48.552 92.6674 47.4 91.5794 46.568C90.4914 45.672 89.1154 45.256 87.4514 45.32C85.8514 45.32 84.4754 45.416 83.3234 45.608C82.2354 45.8 80.8594 46.12 79.1954 46.568C76.1234 47.336 73.4674 47.272 71.2274 46.376C68.9874 45.48 67.4514 43.72 66.6194 41.096C65.8514 38.344 66.0114 36.04 67.0994 34.184C68.2514 32.328 69.9794 30.888 72.2834 29.864C74.2674 28.904 76.4754 28.104 78.9074 27.464C81.4034 26.824 84.0914 26.504 86.9714 26.504C95.3554 26.504 101.499 28.552 105.403 32.648C109.371 36.68 111.355 43.464 111.355 53L111.355 67.88C111.355 70.504 110.555 72.68 108.955 74.408C107.355 76.136 105.147 77 102.331 77C99.2594 77 96.9554 76.136 95.4194 74.408C93.9474 72.68 93.2114 70.568 93.2114 68.072L93.2114 65.864L91.2914 65.864C91.2914 67.528 90.9714 69.224 90.3314 70.952C89.7554 72.68 88.5074 74.12 86.5874 75.272C84.7314 76.424 81.7554 77 77.6594 77ZM78.6194 55.976C78.6194 57.064 79.0034 57.832 79.7714 58.28C80.6034 58.728 82.3634 58.952 85.0514 58.952C87.4834 58.952 89.1794 58.728 90.1394 58.28C91.0994 57.832 91.5794 57.064 91.5794 55.976C91.5794 54.952 91.0994 54.248 90.1394 53.864C89.1794 53.416 87.4834 53.192 85.0514 53.192C82.3634 53.192 80.6034 53.416 79.7714 53.864C79.0034 54.248 78.6194 54.952 78.6194 55.976ZM125.446 77C122.63 77 120.39 76.168 118.726 74.504C117.126 72.776 116.326 70.664 116.326 68.168L116.326 12.584C116.326 9.896 117.126 7.62399 118.726 5.768C120.39 3.912 122.726 2.984 125.734 2.984C128.678 2.984 130.886 3.912 132.358 5.768C133.894 7.62399 134.662 9.928 134.662 12.68L134.662 41.384L136.39 41.384C136.39 37.736 137.03 34.856 138.31 32.744C139.654 30.632 141.35 29.128 143.398 28.232C145.51 27.272 147.654 26.792 149.83 26.792C153.67 26.792 156.582 27.752 158.566 29.672C160.614 31.528 161.99 34.024 162.694 37.16C163.462 40.296 163.846 43.72 163.846 47.432L163.846 68.168C163.846 70.792 162.982 72.936 161.254 74.6C159.59 76.2 157.35 77 154.534 77C151.654 77 149.382 76.2 147.718 74.6C146.054 72.936 145.222 70.792 145.222 68.168L145.222 51.176C145.222 48.872 144.774 47.08 143.878 45.8C142.982 44.52 141.67 43.88 139.942 43.88C138.214 43.88 136.902 44.584 136.006 45.992C135.11 47.4 134.662 49.192 134.662 51.368L134.662 68.168C134.662 70.664 133.83 72.776 132.166 74.504C130.566 76.168 128.326 77 125.446 77ZM183.034 77C178.298 77 174.586 75.72 171.898 73.16C169.274 70.6 167.962 67.016 167.962 62.408C167.962 57.8 169.498 54.472 172.57 52.424C175.642 50.312 179.578 49.256 184.378 49.256C187.194 49.256 189.754 49.448 192.058 49.832C194.362 50.216 196.442 50.76 198.298 51.464L198.586 51.464L198.586 50.024C198.586 48.552 198.042 47.4 196.954 46.568C195.866 45.672 194.49 45.256 192.826 45.32C191.226 45.32 189.85 45.416 188.698 45.608C187.61 45.8 186.234 46.12 184.57 46.568C181.498 47.336 178.842 47.272 176.602 46.376C174.362 45.48 172.826 43.72 171.994 41.096C171.226 38.344 171.386 36.04 172.474 34.184C173.626 32.328 175.354 30.888 177.658 29.864C179.642 28.904 181.85 28.104 184.282 27.464C186.778 26.824 189.466 26.504 192.346 26.504C200.73 26.504 206.874 28.552 210.778 32.648C214.746 36.68 216.73 43.464 216.73 53L216.73 67.88C216.73 70.504 215.93 72.68 214.33 74.408C212.73 76.136 210.522 77 207.706 77C204.634 77 202.33 76.136 200.794 74.408C199.322 72.68 198.586 70.568 198.586 68.072L198.586 65.864L196.666 65.864C196.666 67.528 196.346 69.224 195.706 70.952C195.13 72.68 193.882 74.12 191.962 75.272C190.106 76.424 187.13 77 183.034 77ZM183.994 55.976C183.994 57.064 184.378 57.832 185.146 58.28C185.978 58.728 187.738 58.952 190.426 58.952C192.858 58.952 194.554 58.728 195.514 58.28C196.474 57.832 196.954 57.064 196.954 55.976C196.954 54.952 196.474 54.248 195.514 53.864C194.554 53.416 192.858 53.192 190.426 53.192C187.738 53.192 185.978 53.416 185.146 53.864C184.378 54.248 183.994 54.952 183.994 55.976ZM235.909 77C231.173 77 227.461 75.72 224.773 73.16C222.149 70.6 220.837 67.016 220.837 62.408C220.837 57.8 222.373 54.472 225.445 52.424C228.517 50.312 232.453 49.256 237.253 49.256C240.069 49.256 242.629 49.448 244.933 49.832C247.237 50.216 249.317 50.76 251.173 51.464L251.461 51.464L251.461 50.024C251.461 48.552 250.917 47.4 249.829 46.568C248.741 45.672 247.365 45.256 245.701 45.32C244.101 45.32 242.725 45.416 241.573 45.608C240.485 45.8 239.109 46.12 237.445 46.568C234.373 47.336 231.717 47.272 229.477 46.376C227.237 45.48 225.701 43.72 224.869 41.096C224.101 38.344 224.261 36.04 225.349 34.184C226.501 32.328 228.229 30.888 230.533 29.864C232.517 28.904 234.725 28.104 237.157 27.464C239.653 26.824 242.341 26.504 245.221 26.504C253.605 26.504 259.749 28.552 263.653 32.648C267.621 36.68 269.605 43.464 269.605 53L269.605 67.88C269.605 70.504 268.805 72.68 267.205 74.408C265.605 76.136 263.397 77 260.581 77C257.509 77 255.205 76.136 253.669 74.408C252.197 72.68 251.461 70.568 251.461 68.072L251.461 65.864L249.541 65.864C249.541 67.528 249.221 69.224 248.581 70.952C248.005 72.68 246.757 74.12 244.837 75.272C242.981 76.424 240.005 77 235.909 77ZM236.869 55.976C236.869 57.064 237.253 57.832 238.021 58.28C238.853 58.728 240.613 58.952 243.301 58.952C245.733 58.952 247.429 58.728 248.389 58.28C249.349 57.832 249.829 57.064 249.829 55.976C249.829 54.952 249.349 54.248 248.389 53.864C247.429 53.416 245.733 53.192 243.301 53.192C240.613 53.192 238.853 53.416 238.021 53.864C237.253 54.248 236.869 54.952 236.869 55.976ZM283.888 77C281.072 77 278.8 76.168 277.072 74.504C275.408 72.776 274.576 70.664 274.576 68.168L274.576 36.392C274.576 33.704 275.376 31.432 276.976 29.576C278.576 27.72 280.88 26.792 283.888 26.792C286.832 26.792 289.072 27.72 290.608 29.576C292.144 31.432 292.912 33.768 292.912 36.584L292.912 41.384L294.64 41.384C294.64 37.736 295.28 34.856 296.56 32.744C297.904 30.632 299.6 29.128 301.648 28.232C303.696 27.272 305.744 26.792 307.792 26.792C312.72 26.792 316.336 28.584 318.64 32.168C320.944 35.688 322.096 40.712 322.096 47.24L322.096 68.168C322.096 70.664 321.264 72.776 319.6 74.504C317.936 76.168 315.696 77 312.88 77C310 77 307.696 76.168 305.968 74.504C304.304 72.776 303.472 70.664 303.472 68.168L303.472 51.176C303.472 48.872 303.024 47.08 302.128 45.8C301.296 44.52 300.048 43.88 298.384 43.88C296.464 43.88 295.056 44.584 294.16 45.992C293.328 47.4 292.912 49.192 292.912 51.368L292.912 68.168C292.912 70.664 292.112 72.776 290.512 74.504C288.912 76.168 286.704 77 283.888 77ZM326.692 15.656C326.692 12.904 327.524 10.696 329.188 9.032C330.916 7.304 333.284 6.44 336.292 6.44C339.492 6.44 341.86 7.272 343.396 8.936C344.996 10.6 345.796 12.808 345.796 15.56C345.796 18.248 344.996 20.424 343.396 22.088C341.86 23.688 339.492 24.488 336.292 24.488C333.156 24.488 330.756 23.688 329.092 22.088C327.492 20.424 326.692 18.28 326.692 15.656ZM336.292 77C333.284 77 331.044 76.168 329.572 74.504C328.1 72.84 327.364 70.76 327.364 68.264L327.364 35.432C327.364 32.68 328.1 30.504 329.572 28.904C331.044 27.304 333.284 26.504 336.292 26.504C339.3 26.504 341.54 27.304 343.012 28.904C344.548 30.504 345.316 32.616 345.316 35.24L345.316 68.264C345.316 70.76 344.516 72.84 342.916 74.504C341.38 76.168 339.172 77 336.292 77Z" fill="#ECA6AF"/>
</g>
<defs>
<filter id="filter0_dii_15_96" x="-1.84766" y="-2.01599" width="365.444" height="96.2" filterUnits="userSpaceOnUse" color-interpolation-filters="sRGB">
<feFlood flood-opacity="0" result="BackgroundImageFix"/>
<feColorMatrix in="SourceAlpha" type="matrix" values="0 0 0 0 0 0 0 0 0 0 0 0 0 0 0 0 0 0 127 0" result="hardAlpha"/>
<feOffset dx="8" dy="7"/>
<feGaussianBlur stdDeviation="4.9"/>
<feComposite in2="hardAlpha" operator="out"/>
<feColorMatrix type="matrix" values="0 0 0 0 0 0 0 0 0 0 0 0 0 0 0 0 0 0 0.42 0"/>
<feBlend mode="normal" in2="BackgroundImageFix" result="effect1_dropShadow_15_96"/>
<feBlend mode="normal" in="SourceGraphic" in2="effect1_dropShadow_15_96" result="shape"/>
<feColorMatrix in="SourceAlpha" type="matrix" values="0 0 0 0 0 0 0 0 0 0 0 0 0 0 0 0 0 0 127 0" result="hardAlpha"/>
<feOffset dx="-4" dy="5"/>
<feGaussianBlur stdDeviation="4.35"/>
<feComposite in2="hardAlpha" operator="arithmetic" k2="-1" k3="1"/>
<feColorMatrix type="matrix" values="0 0 0 0 1 0 0 0 0 1 0 0 0 0 1 0 0 0 1 0"/>
<feBlend mode="normal" in2="shape" result="effect2_innerShadow_15_96"/>
<feColorMatrix in="SourceAlpha" type="matrix" values="0 0 0 0 0 0 0 0 0 0 0 0 0 0 0 0 0 0 127 0" result="hardAlpha"/>
<feOffset dy="-5"/>
<feGaussianBlur stdDeviation="5.75"/>
<feComposite in2="hardAlpha" operator="arithmetic" k2="-1" k3="1"/>
<feColorMatrix type="matrix" values="0 0 0 0 0.951228 0 0 0 0 0.835201 0 0 0 0 0.849705 0 0 0 1 0"/>
<feBlend mode="normal" in2="effect2_innerShadow_15_96" result="effect3_innerShadow_15_96"/>
</filter>
</defs>
</svg>
