<svg width="297" height="56" viewBox="0 0 297 56" fill="none" xmlns="http://www.w3.org/2000/svg">
<g filter="url(#filter0_dii_15_118)">
<path d="M5.77592 31C4.59992 31 3.71192 30.688 3.11192 30.064C2.53592 29.44 2.24792 28.66 2.24792 27.724L2.24792 6.844C2.24792 5.812 2.53592 4.96 3.11192 4.288C3.71192 3.592 4.59992 3.244 5.77592 3.244C6.83192 3.244 7.64792 3.592 8.22392 4.288C8.79992 4.96 9.08792 5.788 9.08792 6.772L9.08792 27.724C9.08792 28.66 8.79992 29.44 8.22392 30.064C7.64792 30.688 6.83192 31 5.77592 31ZM10.7557 21.64C10.7557 19.744 11.1277 18.076 11.8717 16.636C12.6397 15.196 13.7197 14.068 15.1117 13.252C16.5277 12.436 18.2077 12.028 20.1517 12.028C21.6637 12.028 23.0197 12.304 24.2197 12.856C25.4437 13.408 26.4037 14.152 27.0997 15.088C27.7957 16 28.1437 17.008 28.1437 18.112C28.1437 19.264 27.8077 20.08 27.1357 20.56C26.4637 21.04 25.4677 21.28 24.1477 21.28L16.5877 21.28C16.5877 21.904 16.8277 22.42 17.3077 22.828C17.8117 23.236 18.6517 23.44 19.8277 23.44C20.4277 23.44 20.9797 23.38 21.4837 23.26C22.0117 23.14 22.5397 23.032 23.0677 22.936C23.6197 22.816 24.2317 22.756 24.9037 22.756C25.8637 22.756 26.6557 23.104 27.2797 23.8C27.9037 24.472 28.2157 25.408 28.2157 26.608C28.2157 28.024 27.4837 29.128 26.0197 29.92C24.5797 30.712 22.6837 31.108 20.3317 31.108C18.6757 31.108 17.1157 30.784 15.6517 30.136C14.2117 29.488 13.0357 28.468 12.1237 27.076C11.2117 25.66 10.7557 23.848 10.7557 21.64ZM22.4197 20.092C22.7797 20.092 22.8997 19.924 22.7797 19.588C22.6837 19.252 22.3957 18.904 21.9157 18.544C21.4357 18.184 20.7397 18.004 19.8277 18.004C18.7717 18.004 17.9797 18.232 17.4517 18.688C16.9477 19.144 16.6957 19.612 16.6957 20.092L22.4197 20.092ZM39.5858 31.108C38.3138 31.108 37.1618 30.82 36.1298 30.244C35.1218 29.668 34.3298 28.852 33.7538 27.796C33.1778 26.716 32.8898 25.456 32.8898 24.016L32.8898 17.68L31.5578 17.86C30.8378 17.956 30.2018 17.704 29.6498 17.104C29.0978 16.504 28.8218 15.748 28.8218 14.836C28.8218 13.924 29.0978 13.18 29.6498 12.604C30.2018 12.004 30.8378 11.752 31.5578 11.848L32.8898 12.028L32.8538 9.58C32.8298 8.62 33.1058 7.864 33.6818 7.312C34.2578 6.736 35.0978 6.448 36.2018 6.448C37.3058 6.448 38.1578 6.736 38.7578 7.312C39.3578 7.864 39.6338 8.62 39.5858 9.58L39.5138 12.028L41.4218 11.776C42.7178 11.584 43.7018 11.824 44.3738 12.496C45.0458 13.144 45.3818 13.924 45.3818 14.836C45.3818 15.748 45.0458 16.54 44.3738 17.212C43.7258 17.86 42.7778 18.1 41.5298 17.932L39.5138 17.68L39.5138 23.044C39.5138 23.356 39.6218 23.644 39.8378 23.908C40.0538 24.148 40.3178 24.22 40.6298 24.124C40.9898 24.028 41.3618 23.824 41.7458 23.512C42.1538 23.2 42.6698 23.044 43.2938 23.044C44.2298 23.044 44.9498 23.38 45.4538 24.052C45.9578 24.724 46.2098 25.552 46.2098 26.536C46.2098 27.304 45.9338 28.048 45.3818 28.768C44.8538 29.464 44.0978 30.028 43.1138 30.46C42.1298 30.892 40.9538 31.108 39.5858 31.108ZM56.5342 31.468C54.8782 31.468 53.3422 31.312 51.9262 31C50.5342 30.664 49.4182 30.148 48.5782 29.452C47.7382 28.732 47.3182 27.784 47.3182 26.608C47.3182 25.576 47.6302 24.724 48.2542 24.052C48.8782 23.38 49.7062 23.044 50.7382 23.044C51.3862 23.044 52.0342 23.152 52.6822 23.368C53.3542 23.56 54.0622 23.752 54.8062 23.944C55.5502 24.136 56.3542 24.232 57.2182 24.232C57.9862 24.232 58.5022 24.196 58.7662 24.124C59.0302 24.028 59.1622 23.86 59.1622 23.62C59.1622 23.332 58.9942 23.14 58.6582 23.044C58.3462 22.948 57.8062 22.828 57.0382 22.684L54.4462 22.18C53.3662 21.964 52.3102 21.688 51.2782 21.352C50.2702 20.992 49.4302 20.464 48.7582 19.768C48.1102 19.072 47.7862 18.124 47.7862 16.924C47.7862 15.292 48.5062 14.02 49.9462 13.108C51.4102 12.196 53.5222 11.74 56.2822 11.74C57.8662 11.74 59.2822 11.896 60.5302 12.208C61.8022 12.52 62.8102 12.988 63.5542 13.612C64.2982 14.212 64.6702 14.968 64.6702 15.88C64.6942 16.864 64.4302 17.656 63.8782 18.256C63.3262 18.856 62.6302 19.156 61.7902 19.156C61.1902 19.156 60.5782 19.084 59.9542 18.94C59.3542 18.772 58.6942 18.604 57.9742 18.436C57.2782 18.244 56.4742 18.136 55.5622 18.112C54.9142 18.064 54.3862 18.1 53.9782 18.22C53.5702 18.34 53.3662 18.532 53.3662 18.796C53.3662 19.084 53.6062 19.288 54.0862 19.408C54.5662 19.504 55.2862 19.636 56.2462 19.804L58.8022 20.272C60.3622 20.536 61.5982 20.872 62.5102 21.28C63.4462 21.664 64.1182 22.204 64.5262 22.9C64.9342 23.596 65.1382 24.556 65.1382 25.78C65.1382 27.052 64.7662 28.12 64.0222 28.984C63.3022 29.824 62.2942 30.448 60.9982 30.856C59.7022 31.264 58.2142 31.468 56.5342 31.468ZM81.7604 38.416C80.2964 38.416 79.0484 38.26 78.0164 37.948C77.0084 37.636 76.0364 37.156 75.1004 36.508C74.2844 35.932 73.7084 35.128 73.3724 34.096C73.0364 33.064 73.2044 32.02 73.8764 30.964C74.3084 30.316 74.7884 29.872 75.3164 29.632C75.8684 29.392 76.3964 29.296 76.9004 29.344C77.4284 29.368 77.8844 29.476 78.2684 29.668C79.1084 30.076 79.7564 30.376 80.2124 30.568C80.6924 30.736 81.2324 30.82 81.8324 30.82C82.7204 30.82 83.4644 30.508 84.0644 29.884C84.6884 29.26 85.0004 28.384 85.0004 27.256L85.0004 24.34L84.3524 24.34C84.1844 25.612 83.6924 26.62 82.8764 27.364C82.0844 28.084 80.9924 28.444 79.6004 28.444C78.5444 28.444 77.5124 28.18 76.5044 27.652C75.4964 27.124 74.6684 26.284 74.0204 25.132C73.3724 23.98 73.0484 22.456 73.0484 20.56C73.0484 17.776 73.6604 15.7 74.8844 14.332C76.1084 12.964 77.6924 12.28 79.6364 12.28C80.9804 12.28 82.1324 12.736 83.0924 13.648C84.0524 14.536 84.5324 15.784 84.5324 17.392L84.6404 17.356L84.6404 15.34C84.6404 14.5 84.9044 13.768 85.4324 13.144C85.9844 12.496 86.8364 12.172 87.9884 12.172C89.2124 12.172 90.0884 12.496 90.6164 13.144C91.1684 13.768 91.4444 14.5 91.4444 15.34L91.4804 26.68C91.5044 29.176 91.1924 31.3 90.5444 33.052C89.9204 34.804 88.8884 36.136 87.4484 37.048C86.0324 37.96 84.1364 38.416 81.7604 38.416ZM79.0964 19.948C79.0964 21.244 79.9604 21.892 81.6884 21.892C82.8164 21.892 83.6084 21.736 84.0644 21.424C84.5204 21.112 84.7484 20.62 84.7484 19.948C84.7484 19.252 84.5084 18.772 84.0284 18.508C83.5724 18.244 82.7804 18.112 81.6524 18.112C80.8364 18.112 80.2004 18.244 79.7444 18.508C79.3124 18.772 79.0964 19.252 79.0964 19.948ZM93.162 21.64C93.162 19.744 93.534 18.076 94.278 16.636C95.046 15.196 96.126 14.068 97.518 13.252C98.934 12.436 100.614 12.028 102.558 12.028C104.07 12.028 105.426 12.304 106.626 12.856C107.85 13.408 108.81 14.152 109.506 15.088C110.202 16 110.55 17.008 110.55 18.112C110.55 19.264 110.214 20.08 109.542 20.56C108.87 21.04 107.874 21.28 106.554 21.28L98.994 21.28C98.994 21.904 99.234 22.42 99.714 22.828C100.218 23.236 101.058 23.44 102.234 23.44C102.834 23.44 103.386 23.38 103.89 23.26C104.418 23.14 104.946 23.032 105.474 22.936C106.026 22.816 106.638 22.756 107.31 22.756C108.27 22.756 109.062 23.104 109.686 23.8C110.31 24.472 110.622 25.408 110.622 26.608C110.622 28.024 109.89 29.128 108.426 29.92C106.986 30.712 105.09 31.108 102.738 31.108C101.082 31.108 99.522 30.784 98.058 30.136C96.618 29.488 95.442 28.468 94.53 27.076C93.618 25.66 93.162 23.848 93.162 21.64ZM104.826 20.092C105.186 20.092 105.306 19.924 105.186 19.588C105.09 19.252 104.802 18.904 104.322 18.544C103.842 18.184 103.146 18.004 102.234 18.004C101.178 18.004 100.386 18.232 99.858 18.688C99.354 19.144 99.102 19.612 99.102 20.092L104.826 20.092ZM121.992 31.108C120.72 31.108 119.568 30.82 118.536 30.244C117.528 29.668 116.736 28.852 116.16 27.796C115.584 26.716 115.296 25.456 115.296 24.016L115.296 17.68L113.964 17.86C113.244 17.956 112.608 17.704 112.056 17.104C111.504 16.504 111.228 15.748 111.228 14.836C111.228 13.924 111.504 13.18 112.056 12.604C112.608 12.004 113.244 11.752 113.964 11.848L115.296 12.028L115.26 9.58C115.236 8.62 115.512 7.864 116.088 7.312C116.664 6.736 117.504 6.448 118.608 6.448C119.712 6.448 120.564 6.736 121.164 7.312C121.764 7.864 122.04 8.62 121.992 9.58L121.92 12.028L123.828 11.776C125.124 11.584 126.108 11.824 126.78 12.496C127.452 13.144 127.788 13.924 127.788 14.836C127.788 15.748 127.452 16.54 126.78 17.212C126.132 17.86 125.184 18.1 123.936 17.932L121.92 17.68L121.92 23.044C121.92 23.356 122.028 23.644 122.244 23.908C122.46 24.148 122.724 24.22 123.036 24.124C123.396 24.028 123.768 23.824 124.152 23.512C124.56 23.2 125.076 23.044 125.7 23.044C126.636 23.044 127.356 23.38 127.86 24.052C128.364 24.724 128.616 25.552 128.616 26.536C128.616 27.304 128.34 28.048 127.788 28.768C127.26 29.464 126.504 30.028 125.52 30.46C124.536 30.892 123.36 31.108 121.992 31.108ZM136.545 7.996C136.545 6.964 136.857 6.136 137.481 5.512C138.129 4.864 139.017 4.54 140.145 4.54C141.345 4.54 142.233 4.852 142.809 5.476C143.409 6.1 143.709 6.928 143.709 7.96C143.709 8.968 143.409 9.784 142.809 10.408C142.233 11.008 141.345 11.308 140.145 11.308C138.969 11.308 138.069 11.008 137.445 10.408C136.845 9.784 136.545 8.98 136.545 7.996ZM140.145 31C139.017 31 138.177 30.688 137.625 30.064C137.073 29.44 136.797 28.66 136.797 27.724L136.797 15.412C136.797 14.38 137.073 13.564 137.625 12.964C138.177 12.364 139.017 12.064 140.145 12.064C141.273 12.064 142.113 12.364 142.665 12.964C143.241 13.564 143.529 14.356 143.529 15.34L143.529 27.724C143.529 28.66 143.229 29.44 142.629 30.064C142.053 30.688 141.225 31 140.145 31ZM149.005 31C147.949 31 147.097 30.688 146.449 30.064C145.825 29.416 145.513 28.624 145.513 27.688L145.513 15.772C145.513 14.764 145.813 13.912 146.413 13.216C147.013 12.52 147.877 12.172 149.005 12.172C150.109 12.172 150.949 12.52 151.525 13.216C152.101 13.912 152.389 14.788 152.389 15.844L152.389 17.644L153.037 17.644C153.037 16.276 153.277 15.196 153.757 14.404C154.261 13.612 154.897 13.048 155.665 12.712C156.433 12.352 157.201 12.172 157.969 12.172C159.817 12.172 161.173 12.844 162.037 14.188C162.901 15.508 163.333 17.392 163.333 19.84L163.333 27.688C163.333 28.624 163.021 29.416 162.397 30.064C161.773 30.688 160.933 31 159.877 31C158.797 31 157.933 30.688 157.285 30.064C156.661 29.416 156.349 28.624 156.349 27.688L156.349 21.316C156.349 20.452 156.181 19.78 155.845 19.3C155.533 18.82 155.065 18.58 154.441 18.58C153.721 18.58 153.193 18.844 152.857 19.372C152.545 19.9 152.389 20.572 152.389 21.388L152.389 27.688C152.389 28.624 152.089 29.416 151.489 30.064C150.889 30.688 150.061 31 149.005 31ZM182.109 31.108C180.837 31.108 179.685 30.82 178.653 30.244C177.645 29.668 176.853 28.852 176.277 27.796C175.701 26.716 175.413 25.456 175.413 24.016L175.413 17.68L174.081 17.86C173.361 17.956 172.725 17.704 172.173 17.104C171.621 16.504 171.345 15.748 171.345 14.836C171.345 13.924 171.621 13.18 172.173 12.604C172.725 12.004 173.361 11.752 174.081 11.848L175.413 12.028L175.377 9.58C175.353 8.62 175.629 7.864 176.205 7.312C176.781 6.736 177.621 6.448 178.725 6.448C179.829 6.448 180.681 6.736 181.281 7.312C181.881 7.864 182.157 8.62 182.109 9.58L182.037 12.028L183.945 11.776C185.241 11.584 186.225 11.824 186.897 12.496C187.569 13.144 187.905 13.924 187.905 14.836C187.905 15.748 187.569 16.54 186.897 17.212C186.249 17.86 185.301 18.1 184.053 17.932L182.037 17.68L182.037 23.044C182.037 23.356 182.145 23.644 182.361 23.908C182.577 24.148 182.841 24.22 183.153 24.124C183.513 24.028 183.885 23.824 184.269 23.512C184.677 23.2 185.193 23.044 185.817 23.044C186.753 23.044 187.473 23.38 187.977 24.052C188.481 24.724 188.733 25.552 188.733 26.536C188.733 27.304 188.457 28.048 187.905 28.768C187.377 29.464 186.621 30.028 185.637 30.46C184.653 30.892 183.477 31.108 182.109 31.108ZM198.319 31.072C195.511 31.072 193.267 30.244 191.587 28.588C189.931 26.908 189.103 24.544 189.103 21.496C189.103 19.624 189.487 17.98 190.255 16.564C191.023 15.148 192.091 14.044 193.459 13.252C194.851 12.436 196.471 12.028 198.319 12.028C200.383 12.028 202.099 12.436 203.467 13.252C204.835 14.044 205.855 15.148 206.527 16.564C207.223 17.98 207.571 19.624 207.571 21.496C207.571 24.544 206.803 26.908 205.267 28.588C203.755 30.244 201.439 31.072 198.319 31.072ZM193.387 20.884C193.387 21.628 193.759 22.156 194.503 22.468C195.247 22.756 196.519 22.9 198.319 22.9C200.119 22.9 201.391 22.756 202.135 22.468C202.879 22.156 203.251 21.628 203.251 20.884C203.251 20.164 202.879 19.66 202.135 19.372C201.391 19.084 200.119 18.94 198.319 18.94C196.519 18.94 195.247 19.084 194.503 19.372C193.759 19.66 193.387 20.164 193.387 20.884ZM214.73 31C213.05 31 211.682 30.364 210.626 29.092C209.57 27.82 209.03 26.032 209.006 23.728L208.97 15.412C208.97 14.38 209.282 13.576 209.906 13C210.554 12.4 211.43 12.1 212.534 12.1C213.59 12.1 214.442 12.4 215.09 13C215.738 13.576 216.062 14.38 216.062 15.412L216.062 22.936C216.062 24.736 216.77 25.636 218.186 25.636C218.882 25.636 219.35 25.384 219.59 24.88C219.83 24.352 219.95 23.68 219.95 22.864L219.95 15.412C219.95 14.476 220.274 13.696 220.922 13.072C221.57 12.424 222.41 12.1 223.442 12.1C224.522 12.1 225.35 12.424 225.926 13.072C226.526 13.696 226.826 14.476 226.826 15.412L226.826 27.22C226.826 28.372 226.562 29.296 226.034 29.992C225.53 30.664 224.702 31 223.55 31C222.422 31 221.534 30.664 220.886 29.992C220.262 29.296 219.95 28.372 219.95 27.22L219.95 26.608L219.302 26.608C219.302 28 218.882 29.08 218.042 29.848C217.226 30.616 216.122 31 214.73 31ZM237.945 31.108C236.073 31.108 234.417 30.724 232.977 29.956C231.537 29.164 230.409 28.048 229.593 26.608C228.777 25.168 228.369 23.476 228.369 21.532C228.369 19.588 228.777 17.896 229.593 16.456C230.409 15.016 231.537 13.9 232.977 13.108C234.441 12.316 236.121 11.92 238.017 11.92C239.505 11.92 240.813 12.076 241.941 12.388C243.093 12.7 243.993 13.168 244.641 13.792C245.313 14.416 245.649 15.196 245.649 16.132C245.649 17.26 245.361 18.148 244.785 18.796C244.209 19.42 243.381 19.732 242.301 19.732C241.581 19.732 240.861 19.624 240.141 19.408C239.445 19.192 238.545 19.084 237.441 19.084C236.529 19.084 235.761 19.228 235.137 19.516C234.513 19.804 234.201 20.332 234.201 21.1C234.201 21.892 234.513 22.468 235.137 22.828C235.761 23.164 236.529 23.332 237.441 23.332C238.185 23.332 238.809 23.26 239.313 23.116C239.817 22.972 240.297 22.828 240.753 22.684C241.209 22.54 241.725 22.468 242.301 22.468C243.525 22.468 244.425 22.828 245.001 23.548C245.601 24.244 245.901 25.144 245.901 26.248C245.901 27.184 245.553 28.024 244.857 28.768C244.161 29.488 243.213 30.064 242.013 30.496C240.813 30.904 239.457 31.108 237.945 31.108ZM250.746 31C249.69 31 248.85 30.688 248.226 30.064C247.626 29.416 247.326 28.624 247.326 27.688L247.326 6.844C247.326 5.836 247.626 4.984 248.226 4.288C248.85 3.592 249.726 3.244 250.854 3.244C251.958 3.244 252.786 3.592 253.338 4.288C253.914 4.984 254.202 5.848 254.202 6.88L254.202 17.644L254.85 17.644C254.85 16.276 255.09 15.196 255.57 14.404C256.074 13.612 256.71 13.048 257.478 12.712C258.27 12.352 259.074 12.172 259.89 12.172C261.33 12.172 262.422 12.532 263.166 13.252C263.934 13.948 264.45 14.884 264.714 16.06C265.002 17.236 265.146 18.52 265.146 19.912L265.146 27.688C265.146 28.672 264.822 29.476 264.174 30.1C263.55 30.7 262.71 31 261.654 31C260.574 31 259.722 30.7 259.098 30.1C258.474 29.476 258.162 28.672 258.162 27.688L258.162 21.316C258.162 20.452 257.994 19.78 257.658 19.3C257.322 18.82 256.83 18.58 256.182 18.58C255.534 18.58 255.042 18.844 254.706 19.372C254.37 19.9 254.202 20.572 254.202 21.388L254.202 27.688C254.202 28.624 253.89 29.416 253.266 30.064C252.666 30.688 251.826 31 250.746 31ZM268.921 8.608C268.897 7.744 269.041 6.94 269.353 6.196C269.689 5.428 270.229 4.816 270.973 4.36C271.717 3.88 272.677 3.64 273.853 3.64C275.053 3.64 276.013 3.88 276.733 4.36C277.477 4.816 278.005 5.428 278.317 6.196C278.653 6.94 278.809 7.744 278.785 8.608C278.761 9.4 278.641 10.144 278.425 10.84C278.209 11.536 277.957 12.256 277.669 13C277.381 13.72 277.117 14.524 276.877 15.412C276.637 16.276 276.481 17.272 276.409 18.4C276.337 19.336 276.073 20.032 275.617 20.488C275.161 20.92 274.573 21.136 273.853 21.136C273.109 21.136 272.509 20.92 272.053 20.488C271.597 20.056 271.345 19.36 271.297 18.4C271.225 17.272 271.069 16.276 270.829 15.412C270.589 14.524 270.325 13.72 270.037 13C269.749 12.256 269.497 11.536 269.281 10.84C269.065 10.144 268.945 9.4 268.921 8.608ZM273.853 31.684C272.437 31.684 271.333 31.312 270.541 30.568C269.749 29.8 269.353 28.792 269.353 27.544C269.353 26.272 269.749 25.24 270.541 24.448C271.357 23.656 272.461 23.26 273.853 23.26C275.197 23.26 276.265 23.656 277.057 24.448C277.849 25.216 278.245 26.236 278.245 27.508C278.245 28.756 277.861 29.764 277.093 30.532C276.325 31.3 275.245 31.684 273.853 31.684Z" fill="#ECA6AF"/>
</g>
<defs>
<filter id="filter0_dii_15_118" x="-1.75195" y="-1.75598" width="298.373" height="56.972" filterUnits="userSpaceOnUse" color-interpolation-filters="sRGB">
<feFlood flood-opacity="0" result="BackgroundImageFix"/>
<feColorMatrix in="SourceAlpha" type="matrix" values="0 0 0 0 0 0 0 0 0 0 0 0 0 0 0 0 0 0 127 0" result="hardAlpha"/>
<feOffset dx="8" dy="7"/>
<feGaussianBlur stdDeviation="4.9"/>
<feComposite in2="hardAlpha" operator="out"/>
<feColorMatrix type="matrix" values="0 0 0 0 0 0 0 0 0 0 0 0 0 0 0 0 0 0 0.42 0"/>
<feBlend mode="normal" in2="BackgroundImageFix" result="effect1_dropShadow_15_118"/>
<feBlend mode="normal" in="SourceGraphic" in2="effect1_dropShadow_15_118" result="shape"/>
<feColorMatrix in="SourceAlpha" type="matrix" values="0 0 0 0 0 0 0 0 0 0 0 0 0 0 0 0 0 0 127 0" result="hardAlpha"/>
<feOffset dx="-4" dy="5"/>
<feGaussianBlur stdDeviation="4.35"/>
<feComposite in2="hardAlpha" operator="arithmetic" k2="-1" k3="1"/>
<feColorMatrix type="matrix" values="0 0 0 0 1 0 0 0 0 1 0 0 0 0 1 0 0 0 1 0"/>
<feBlend mode="normal" in2="shape" result="effect2_innerShadow_15_118"/>
<feColorMatrix in="SourceAlpha" type="matrix" values="0 0 0 0 0 0 0 0 0 0 0 0 0 0 0 0 0 0 127 0" result="hardAlpha"/>
<feOffset dy="-5"/>
<feGaussianBlur stdDeviation="5.75"/>
<feComposite in2="hardAlpha" operator="arithmetic" k2="-1" k3="1"/>
<feColorMatrix type="matrix" values="0 0 0 0 0.951228 0 0 0 0 0.835201 0 0 0 0 0.849705 0 0 0 1 0"/>
<feBlend mode="normal" in2="effect2_innerShadow_15_118" result="effect3_innerShadow_15_118"/>
</filter>
</defs>
</svg>
