<svg width="500" height="95" viewBox="0 0 500 95" fill="none" xmlns="http://www.w3.org/2000/svg">
<g filter="url(#filter0_dii_46_20)">
<path d="M12.2546 77C8.92663 77 6.46263 76.008 4.86263 74.024C3.26263 72.04 2.46263 69.384 2.46263 66.056L2.46263 21.32C2.46263 16.456 3.77463 12.872 6.39863 10.568C9.08663 8.264 12.2866 7.112 15.9986 7.112C19.5186 7.112 22.4946 8.264 24.9266 10.568C27.4226 12.872 29.2466 16.52 30.3986 21.512L37.8866 54.056L40.3826 54.056L47.8706 21.512C49.0226 16.52 50.8466 12.872 53.3426 10.568C55.9026 8.264 58.9426 7.112 62.4626 7.112C66.1746 7.112 69.3426 8.264 71.9666 10.568C74.6546 12.872 75.9986 16.456 75.9986 21.32L75.9986 66.056C75.9986 69.384 75.1666 72.04 73.5026 74.024C71.9026 76.008 69.4386 77 66.1106 77C62.9106 77 60.4466 76.008 58.7186 74.024C56.9906 72.04 56.1266 69.384 56.1266 66.056L56.1266 40.232C56.1266 39.592 56.0306 39.016 55.8386 38.504C55.7106 37.928 55.2946 37.64 54.5906 37.64C54.0146 37.64 53.5986 37.928 53.3426 38.504C53.0866 39.016 52.8946 39.592 52.7666 40.232L49.1186 64.424C48.6706 67.048 48.1266 69.32 47.4866 71.24C46.9106 73.096 45.9826 74.536 44.7026 75.56C43.4226 76.52 41.5666 77 39.1346 77C36.7666 77 34.9106 76.52 33.5666 75.56C32.2866 74.536 31.3266 73.096 30.6866 71.24C30.1106 69.32 29.6306 67.048 29.2466 64.424L25.5026 40.232C25.4386 39.592 25.2786 39.016 25.0226 38.504C24.7666 37.928 24.3186 37.64 23.6786 37.64C23.0386 37.64 22.6226 37.928 22.4306 38.504C22.2386 39.016 22.1426 39.592 22.1426 40.232L22.1426 66.056C22.1426 69.384 21.2786 72.04 19.5506 74.024C17.8866 76.008 15.4546 77 12.2546 77ZM81.2861 52.04C81.2861 46.984 82.2781 42.536 84.2621 38.696C86.3101 34.856 89.1901 31.848 92.9021 29.672C96.6781 27.496 101.158 26.408 106.342 26.408C110.374 26.408 113.99 27.144 117.19 28.616C120.454 30.088 123.014 32.072 124.87 34.568C126.726 37 127.654 39.688 127.654 42.632C127.654 45.704 126.758 47.88 124.966 49.16C123.174 50.44 120.518 51.08 116.998 51.08L96.8381 51.08C96.8381 52.744 97.4781 54.12 98.7581 55.208C100.102 56.296 102.342 56.84 105.478 56.84C107.078 56.84 108.55 56.68 109.894 56.36C111.302 56.04 112.71 55.752 114.118 55.496C115.59 55.176 117.222 55.016 119.014 55.016C121.574 55.016 123.686 55.944 125.35 57.8C127.014 59.592 127.846 62.088 127.846 65.288C127.846 69.064 125.894 72.008 121.99 74.12C118.15 76.232 113.094 77.288 106.822 77.288C102.406 77.288 98.2461 76.424 94.3421 74.696C90.5021 72.968 87.3661 70.248 84.9341 66.536C82.5021 62.76 81.2861 57.928 81.2861 52.04ZM112.39 47.912C113.35 47.912 113.67 47.464 113.35 46.568C113.094 45.672 112.326 44.744 111.046 43.784C109.766 42.824 107.91 42.344 105.478 42.344C102.662 42.344 100.55 42.952 99.1421 44.168C97.7981 45.384 97.1261 46.632 97.1261 47.912L112.39 47.912ZM146.409 77C141.673 77 137.961 75.72 135.273 73.16C132.649 70.6 131.337 67.016 131.337 62.408C131.337 57.8 132.873 54.472 135.945 52.424C139.017 50.312 142.953 49.256 147.753 49.256C150.569 49.256 153.129 49.448 155.433 49.832C157.737 50.216 159.817 50.76 161.673 51.464L161.961 51.464L161.961 50.024C161.961 48.552 161.417 47.4 160.329 46.568C159.241 45.672 157.865 45.256 156.201 45.32C154.601 45.32 153.225 45.416 152.073 45.608C150.985 45.8 149.609 46.12 147.945 46.568C144.873 47.336 142.217 47.272 139.977 46.376C137.737 45.48 136.201 43.72 135.369 41.096C134.601 38.344 134.761 36.04 135.849 34.184C137.001 32.328 138.729 30.888 141.033 29.864C143.017 28.904 145.225 28.104 147.657 27.464C150.153 26.824 152.841 26.504 155.721 26.504C164.105 26.504 170.249 28.552 174.153 32.648C178.121 36.68 180.105 43.464 180.105 53L180.105 67.88C180.105 70.504 179.305 72.68 177.705 74.408C176.105 76.136 173.897 77 171.081 77C168.009 77 165.705 76.136 164.169 74.408C162.697 72.68 161.961 70.568 161.961 68.072L161.961 65.864L160.041 65.864C160.041 67.528 159.721 69.224 159.081 70.952C158.505 72.68 157.257 74.12 155.337 75.272C153.481 76.424 150.505 77 146.409 77ZM147.369 55.976C147.369 57.064 147.753 57.832 148.521 58.28C149.353 58.728 151.113 58.952 153.801 58.952C156.233 58.952 157.929 58.728 158.889 58.28C159.849 57.832 160.329 57.064 160.329 55.976C160.329 54.952 159.849 54.248 158.889 53.864C157.929 53.416 156.233 53.192 153.801 53.192C151.113 53.192 149.353 53.416 148.521 53.864C147.753 54.248 147.369 54.952 147.369 55.976ZM194.1 77C190.964 77 188.596 76.168 186.996 74.504C185.46 72.84 184.692 70.76 184.692 68.264L184.692 12.584C184.692 9.832 185.46 7.56 186.996 5.768C188.596 3.912 190.964 2.984 194.1 2.984C196.916 2.984 199.092 3.912 200.628 5.768C202.164 7.56 202.932 9.768 202.932 12.392L202.932 68.264C202.932 70.76 202.164 72.84 200.628 74.504C199.092 76.168 196.916 77 194.1 77ZM218.036 77C214.708 77 212.244 76.008 210.644 74.024C209.044 72.04 208.244 69.384 208.244 66.056L208.244 21.32C208.244 16.456 209.556 12.872 212.18 10.568C214.868 8.264 218.068 7.112 221.78 7.112C225.3 7.112 228.276 8.264 230.708 10.568C233.204 12.872 235.028 16.52 236.18 21.512L243.668 54.056L246.164 54.056L253.652 21.512C254.804 16.52 256.628 12.872 259.124 10.568C261.684 8.264 264.724 7.112 268.244 7.112C271.956 7.112 275.124 8.264 277.748 10.568C280.436 12.872 281.78 16.456 281.78 21.32L281.78 66.056C281.78 69.384 280.948 72.04 279.284 74.024C277.684 76.008 275.22 77 271.892 77C268.692 77 266.228 76.008 264.5 74.024C262.772 72.04 261.908 69.384 261.908 66.056L261.908 40.232C261.908 39.592 261.812 39.016 261.62 38.504C261.492 37.928 261.076 37.64 260.372 37.64C259.796 37.64 259.38 37.928 259.124 38.504C258.868 39.016 258.676 39.592 258.548 40.232L254.9 64.424C254.452 67.048 253.908 69.32 253.268 71.24C252.692 73.096 251.764 74.536 250.484 75.56C249.204 76.52 247.348 77 244.916 77C242.548 77 240.692 76.52 239.348 75.56C238.068 74.536 237.108 73.096 236.468 71.24C235.892 69.32 235.412 67.048 235.028 64.424L231.284 40.232C231.22 39.592 231.06 39.016 230.804 38.504C230.548 37.928 230.1 37.64 229.46 37.64C228.82 37.64 228.404 37.928 228.212 38.504C228.02 39.016 227.924 39.592 227.924 40.232L227.924 66.056C227.924 69.384 227.06 72.04 225.332 74.024C223.668 76.008 221.236 77 218.036 77ZM301.659 77C296.923 77 293.211 75.72 290.523 73.16C287.899 70.6 286.587 67.016 286.587 62.408C286.587 57.8 288.123 54.472 291.195 52.424C294.267 50.312 298.203 49.256 303.003 49.256C305.819 49.256 308.379 49.448 310.683 49.832C312.987 50.216 315.067 50.76 316.923 51.464L317.211 51.464L317.211 50.024C317.211 48.552 316.667 47.4 315.579 46.568C314.491 45.672 313.115 45.256 311.451 45.32C309.851 45.32 308.475 45.416 307.323 45.608C306.235 45.8 304.859 46.12 303.195 46.568C300.123 47.336 297.467 47.272 295.227 46.376C292.987 45.48 291.451 43.72 290.619 41.096C289.851 38.344 290.011 36.04 291.099 34.184C292.251 32.328 293.979 30.888 296.283 29.864C298.267 28.904 300.475 28.104 302.907 27.464C305.403 26.824 308.091 26.504 310.971 26.504C319.355 26.504 325.499 28.552 329.403 32.648C333.371 36.68 335.355 43.464 335.355 53L335.355 67.88C335.355 70.504 334.555 72.68 332.955 74.408C331.355 76.136 329.147 77 326.331 77C323.259 77 320.955 76.136 319.419 74.408C317.947 72.68 317.211 70.568 317.211 68.072L317.211 65.864L315.291 65.864C315.291 67.528 314.971 69.224 314.331 70.952C313.755 72.68 312.507 74.12 310.587 75.272C308.731 76.424 305.755 77 301.659 77ZM302.619 55.976C302.619 57.064 303.003 57.832 303.771 58.28C304.603 58.728 306.363 58.952 309.051 58.952C311.483 58.952 313.179 58.728 314.139 58.28C315.099 57.832 315.579 57.064 315.579 55.976C315.579 54.952 315.099 54.248 314.139 53.864C313.179 53.416 311.483 53.192 309.051 53.192C306.363 53.192 304.603 53.416 303.771 53.864C303.003 54.248 302.619 54.952 302.619 55.976ZM364.979 77.288C361.587 77.288 358.515 76.52 355.763 74.984C353.075 73.448 350.963 71.272 349.427 68.456C347.891 65.576 347.123 62.216 347.123 58.376L347.123 41.48L343.571 41.96C341.651 42.216 339.955 41.544 338.483 39.944C337.011 38.344 336.275 36.328 336.275 33.896C336.275 31.464 337.011 29.48 338.483 27.944C339.955 26.344 341.651 25.672 343.571 25.928L347.123 26.408L347.027 19.88C346.963 17.32 347.699 15.304 349.235 13.832C350.771 12.296 353.011 11.528 355.955 11.528C358.899 11.528 361.171 12.296 362.771 13.832C364.371 15.304 365.107 17.32 364.979 19.88L364.787 26.408L369.875 25.736C373.331 25.224 375.955 25.864 377.747 27.656C379.539 29.384 380.435 31.464 380.435 33.896C380.435 36.328 379.539 38.44 377.747 40.232C376.019 41.96 373.491 42.6 370.163 42.152L364.787 41.48L364.787 55.784C364.787 56.616 365.075 57.384 365.651 58.088C366.227 58.728 366.931 58.92 367.763 58.664C368.723 58.408 369.715 57.864 370.739 57.032C371.827 56.2 373.203 55.784 374.867 55.784C377.363 55.784 379.283 56.68 380.627 58.472C381.971 60.264 382.643 62.472 382.643 65.096C382.643 67.144 381.907 69.128 380.435 71.048C379.027 72.904 377.011 74.408 374.387 75.56C371.763 76.712 368.627 77.288 364.979 77.288ZM408.686 77.288C403.694 77.288 399.278 76.264 395.438 74.216C391.598 72.104 388.59 69.128 386.414 65.288C384.238 61.448 383.15 56.936 383.15 51.752C383.15 46.568 384.238 42.056 386.414 38.216C388.59 34.376 391.598 31.4 395.438 29.288C399.342 27.176 403.822 26.12 408.878 26.12C412.846 26.12 416.334 26.536 419.342 27.368C422.414 28.2 424.814 29.448 426.542 31.112C428.334 32.776 429.23 34.856 429.23 37.352C429.23 40.36 428.462 42.728 426.926 44.456C425.39 46.12 423.182 46.952 420.302 46.952C418.382 46.952 416.462 46.664 414.542 46.088C412.686 45.512 410.286 45.224 407.342 45.224C404.91 45.224 402.862 45.608 401.198 46.376C399.534 47.144 398.702 48.552 398.702 50.6C398.702 52.712 399.534 54.248 401.198 55.208C402.862 56.104 404.91 56.552 407.342 56.552C409.326 56.552 410.99 56.36 412.334 55.976C413.678 55.592 414.958 55.208 416.174 54.824C417.39 54.44 418.766 54.248 420.302 54.248C423.566 54.248 425.966 55.208 427.502 57.128C429.102 58.984 429.902 61.384 429.902 64.328C429.902 66.824 428.974 69.064 427.118 71.048C425.262 72.968 422.734 74.504 419.534 75.656C416.334 76.744 412.718 77.288 408.686 77.288ZM442.821 77C440.005 77 437.765 76.168 436.101 74.504C434.501 72.776 433.701 70.664 433.701 68.168L433.701 12.584C433.701 9.896 434.501 7.62399 436.101 5.768C437.765 3.912 440.101 2.984 443.109 2.984C446.053 2.984 448.261 3.912 449.733 5.768C451.269 7.62399 452.037 9.928 452.037 12.68L452.037 41.384L453.765 41.384C453.765 37.736 454.405 34.856 455.685 32.744C457.029 30.632 458.725 29.128 460.773 28.232C462.885 27.272 465.029 26.792 467.205 26.792C471.045 26.792 473.957 27.752 475.941 29.672C477.989 31.528 479.365 34.024 480.069 37.16C480.837 40.296 481.221 43.72 481.221 47.432L481.221 68.168C481.221 70.792 480.357 72.936 478.629 74.6C476.965 76.2 474.725 77 471.909 77C469.029 77 466.757 76.2 465.093 74.6C463.429 72.936 462.597 70.792 462.597 68.168L462.597 51.176C462.597 48.872 462.149 47.08 461.253 45.8C460.357 44.52 459.045 43.88 457.317 43.88C455.589 43.88 454.277 44.584 453.381 45.992C452.485 47.4 452.037 49.192 452.037 51.368L452.037 68.168C452.037 70.664 451.205 72.776 449.541 74.504C447.941 76.168 445.701 77 442.821 77Z" fill="#ECA6AF"/>
</g>
<defs>
<filter id="filter0_dii_46_20" x="-1.5376" y="-2.01599" width="500.559" height="96.104" filterUnits="userSpaceOnUse" color-interpolation-filters="sRGB">
<feFlood flood-opacity="0" result="BackgroundImageFix"/>
<feColorMatrix in="SourceAlpha" type="matrix" values="0 0 0 0 0 0 0 0 0 0 0 0 0 0 0 0 0 0 127 0" result="hardAlpha"/>
<feOffset dx="8" dy="7"/>
<feGaussianBlur stdDeviation="4.9"/>
<feComposite in2="hardAlpha" operator="out"/>
<feColorMatrix type="matrix" values="0 0 0 0 0 0 0 0 0 0 0 0 0 0 0 0 0 0 0.42 0"/>
<feBlend mode="normal" in2="BackgroundImageFix" result="effect1_dropShadow_46_20"/>
<feBlend mode="normal" in="SourceGraphic" in2="effect1_dropShadow_46_20" result="shape"/>
<feColorMatrix in="SourceAlpha" type="matrix" values="0 0 0 0 0 0 0 0 0 0 0 0 0 0 0 0 0 0 127 0" result="hardAlpha"/>
<feOffset dx="-4" dy="5"/>
<feGaussianBlur stdDeviation="4.35"/>
<feComposite in2="hardAlpha" operator="arithmetic" k2="-1" k3="1"/>
<feColorMatrix type="matrix" values="0 0 0 0 1 0 0 0 0 1 0 0 0 0 1 0 0 0 1 0"/>
<feBlend mode="normal" in2="shape" result="effect2_innerShadow_46_20"/>
<feColorMatrix in="SourceAlpha" type="matrix" values="0 0 0 0 0 0 0 0 0 0 0 0 0 0 0 0 0 0 127 0" result="hardAlpha"/>
<feOffset dy="-5"/>
<feGaussianBlur stdDeviation="5.75"/>
<feComposite in2="hardAlpha" operator="arithmetic" k2="-1" k3="1"/>
<feColorMatrix type="matrix" values="0 0 0 0 0.951228 0 0 0 0 0.835201 0 0 0 0 0.849705 0 0 0 1 0"/>
<feBlend mode="normal" in2="effect2_innerShadow_46_20" result="effect3_innerShadow_46_20"/>
</filter>
</defs>
</svg>
