<svg width="67" height="67" viewBox="0 0 67 67" fill="none" xmlns="http://www.w3.org/2000/svg">
<g filter="url(#filter0_dd_57_46)">
<rect x="1" y="1" width="63" height="63" rx="10" fill="#FF004D" fill-opacity="0.6" shape-rendering="crispEdges"/>
<rect x="1" y="1" width="63" height="63" rx="10" fill="url(#paint0_linear_57_46)" fill-opacity="0.15" shape-rendering="crispEdges"/>
<rect x="1" y="1" width="63" height="63" rx="10" fill="url(#paint1_linear_57_46)" fill-opacity="0.15" shape-rendering="crispEdges"/>
<rect x="1" y="1" width="63" height="63" rx="10" fill="url(#paint2_linear_57_46)" fill-opacity="0.15" shape-rendering="crispEdges"/>
<rect x="1" y="1" width="63" height="63" rx="10" fill="url(#paint3_linear_57_46)" fill-opacity="0.15" shape-rendering="crispEdges"/>
<rect x="1" y="1" width="63" height="63" rx="10" fill="url(#paint4_linear_57_46)" fill-opacity="0.15" shape-rendering="crispEdges"/>
<rect x="1" y="1" width="63" height="63" rx="10" fill="url(#paint5_linear_57_46)" fill-opacity="0.15" shape-rendering="crispEdges"/>
<rect x="1" y="1" width="63" height="63" rx="10" fill="url(#paint6_linear_57_46)" fill-opacity="0.15" shape-rendering="crispEdges"/>
<rect x="1" y="1" width="63" height="63" rx="10" fill="white" fill-opacity="0.4" shape-rendering="crispEdges"/>
</g>
<path d="M24 26C24 25.7348 24.1054 25.4804 24.2929 25.2929C24.4804 25.1054 24.7348 25 25 25H41C41.2652 25 41.5196 25.1054 41.7071 25.2929C41.8946 25.4804 42 25.7348 42 26C42 26.2652 41.8946 26.5196 41.7071 26.7071C41.5196 26.8946 41.2652 27 41 27H25C24.7348 27 24.4804 26.8946 24.2929 26.7071C24.1054 26.5196 24 26.2652 24 26ZM41 31H25C24.7348 31 24.4804 31.1054 24.2929 31.2929C24.1054 31.4804 24 31.7348 24 32C24 32.2652 24.1054 32.5196 24.2929 32.7071C24.4804 32.8946 24.7348 33 25 33H41C41.2652 33 41.5196 32.8946 41.7071 32.7071C41.8946 32.5196 42 32.2652 42 32C42 31.7348 41.8946 31.4804 41.7071 31.2929C41.5196 31.1054 41.2652 31 41 31ZM41 37H25C24.7348 37 24.4804 37.1054 24.2929 37.2929C24.1054 37.4804 24 37.7348 24 38C24 38.2652 24.1054 38.5196 24.2929 38.7071C24.4804 38.8946 24.7348 39 25 39H41C41.2652 39 41.5196 38.8946 41.7071 38.7071C41.8946 38.5196 42 38.2652 42 38C42 37.7348 41.8946 37.4804 41.7071 37.2929C41.5196 37.1054 41.2652 37 41 37Z" fill="white"/>
<defs>
<filter id="filter0_dd_57_46" x="0" y="0" width="67" height="67" filterUnits="userSpaceOnUse" color-interpolation-filters="sRGB">
<feFlood flood-opacity="0" result="BackgroundImageFix"/>
<feColorMatrix in="SourceAlpha" type="matrix" values="0 0 0 0 0 0 0 0 0 0 0 0 0 0 0 0 0 0 127 0" result="hardAlpha"/>
<feOffset/>
<feGaussianBlur stdDeviation="0.5"/>
<feComposite in2="hardAlpha" operator="out"/>
<feColorMatrix type="matrix" values="0 0 0 0 0 0 0 0 0 0 0 0 0 0 0 0 0 0 0.45 0"/>
<feBlend mode="normal" in2="BackgroundImageFix" result="effect1_dropShadow_57_46"/>
<feColorMatrix in="SourceAlpha" type="matrix" values="0 0 0 0 0 0 0 0 0 0 0 0 0 0 0 0 0 0 127 0" result="hardAlpha"/>
<feOffset dx="1" dy="1"/>
<feGaussianBlur stdDeviation="1"/>
<feComposite in2="hardAlpha" operator="out"/>
<feColorMatrix type="matrix" values="0 0 0 0 0 0 0 0 0 0 0 0 0 0 0 0 0 0 0.45 0"/>
<feBlend mode="normal" in2="effect1_dropShadow_57_46" result="effect2_dropShadow_57_46"/>
<feBlend mode="normal" in="SourceGraphic" in2="effect2_dropShadow_57_46" result="shape"/>
</filter>
<linearGradient id="paint0_linear_57_46" x1="64" y1="32.5" x2="5.40807" y2="32.5" gradientUnits="userSpaceOnUse">
<stop stop-color="white"/>
<stop offset="1" stop-color="#FF7A00"/>
</linearGradient>
<linearGradient id="paint1_linear_57_46" x1="64" y1="32.5" x2="13.8084" y2="32.5" gradientUnits="userSpaceOnUse">
<stop stop-color="white"/>
<stop offset="1" stop-color="#FAFF00"/>
</linearGradient>
<linearGradient id="paint2_linear_57_46" x1="64" y1="1" x2="33.0703" y2="14.8571" gradientUnits="userSpaceOnUse">
<stop stop-color="white"/>
<stop offset="1" stop-color="#00FFA3"/>
</linearGradient>
<linearGradient id="paint3_linear_57_46" x1="18.1858" y1="0.999998" x2="64.5886" y2="12.5521" gradientUnits="userSpaceOnUse">
<stop stop-color="white"/>
<stop offset="1" stop-color="#2400FF"/>
</linearGradient>
<linearGradient id="paint4_linear_57_46" x1="11.3351" y1="8.62639" x2="75.4635" y2="30.7076" gradientUnits="userSpaceOnUse">
<stop stop-color="white"/>
<stop offset="1" stop-color="#8F00FF"/>
</linearGradient>
<linearGradient id="paint5_linear_57_46" x1="64" y1="13.8738" x2="-7.22532" y2="32.4326" gradientUnits="userSpaceOnUse">
<stop stop-color="white"/>
<stop offset="1" stop-color="#FF00B8"/>
</linearGradient>
<linearGradient id="paint6_linear_57_46" x1="64" y1="32.5" x2="1" y2="32.5" gradientUnits="userSpaceOnUse">
<stop stop-color="white"/>
<stop offset="1" stop-color="#FF001F"/>
</linearGradient>
</defs>
</svg>
