<svg width="393" height="111" viewBox="0 0 393 111" fill="none" xmlns="http://www.w3.org/2000/svg">
<g filter="url(#filter0_dii_15_42)">
<path d="M44.2166 74C40.6966 74 37.7526 72.912 35.3846 70.736C33.0806 68.56 31.6086 65.744 30.9686 62.288H29.2406V84.368C29.2406 86.992 28.5046 89.2 27.0326 90.992C25.5606 92.848 23.3206 93.776 20.3126 93.776C17.4326 93.776 15.1926 92.848 13.5926 90.992C12.0566 89.2 11.2886 86.928 11.2886 84.176V48.272C11.2886 45.072 11.1606 42.384 10.9046 40.208C10.7126 37.968 10.5206 35.952 10.3286 34.16C10.0726 31.472 10.6166 29.2 11.9606 27.344C13.3046 25.424 15.4806 24.272 18.4886 23.888C22.3926 23.376 25.1446 24.08 26.7446 26C28.4086 27.856 29.2406 30.768 29.2406 34.736V39.344L29.6246 39.44C29.9446 36.944 30.6806 34.512 31.8326 32.144C33.0486 29.712 34.7446 27.728 36.9206 26.192C39.0966 24.592 41.8486 23.792 45.1766 23.792C50.7446 23.792 54.8726 26.032 57.5606 30.512C60.3126 34.928 61.6886 40.848 61.6886 48.272C61.6886 65.424 55.8646 74 44.2166 74ZM28.8566 48.08C28.8566 49.104 28.9846 49.904 29.2406 50.48C29.6246 51.696 30.4246 52.592 31.6406 53.168C32.9206 53.68 34.8086 53.936 37.3046 53.936C40.5046 53.936 42.6806 53.456 43.8326 52.496C45.0486 51.536 45.6566 50.064 45.6566 48.08C45.6566 46.032 45.0806 44.56 43.9286 43.664C42.7766 42.704 40.6006 42.224 37.4006 42.224C34.8406 42.224 32.9206 42.512 31.6406 43.088C30.4246 43.6 29.6246 44.464 29.2406 45.68C28.9846 46.256 28.8566 47.056 28.8566 48.08ZM75.9866 74C72.9786 74 70.6426 73.136 68.9786 71.408C67.3146 69.68 66.4826 67.504 66.4826 64.88V33.392C66.4826 30.64 67.3146 28.368 68.9786 26.576C70.6426 24.72 72.9786 23.792 75.9866 23.792C78.9946 23.792 81.2986 24.72 82.8986 26.576C84.4986 28.368 85.2986 30.576 85.2986 33.2V35.216H87.1226C87.3786 31.824 88.6586 29.04 90.9626 26.864C93.2666 24.688 95.9866 23.6 99.1226 23.6C102.259 23.6 104.723 24.56 106.515 26.48C108.371 28.4 109.299 30.96 109.299 34.16C109.299 37.168 108.435 39.664 106.707 41.648C104.979 43.632 102.771 44.624 100.083 44.624C97.8426 44.624 95.9546 44.112 94.4186 43.088C92.9466 42 91.8586 40.752 91.1546 39.344C89.1066 39.088 87.6026 39.312 86.6426 40.016C85.7466 40.656 85.2986 41.968 85.2986 43.952V64.88C85.2986 67.504 84.4986 69.68 82.8986 71.408C81.2986 73.136 78.9946 74 75.9866 74ZM135.112 74.192C127.624 74.192 121.64 71.984 117.16 67.568C112.744 63.088 110.536 56.784 110.536 48.656C110.536 43.664 111.56 39.28 113.608 35.504C115.656 31.728 118.504 28.784 122.152 26.672C125.864 24.496 130.184 23.408 135.112 23.408C140.616 23.408 145.192 24.496 148.84 26.672C152.488 28.784 155.208 31.728 157 35.504C158.856 39.28 159.784 43.664 159.784 48.656C159.784 56.784 157.736 63.088 153.64 67.568C149.608 71.984 143.432 74.192 135.112 74.192ZM121.96 47.024C121.96 49.008 122.952 50.416 124.936 51.248C126.92 52.016 130.312 52.4 135.112 52.4C139.912 52.4 143.304 52.016 145.288 51.248C147.272 50.416 148.264 49.008 148.264 47.024C148.264 45.104 147.272 43.76 145.288 42.992C143.304 42.224 139.912 41.84 135.112 41.84C130.312 41.84 126.92 42.224 124.936 42.992C122.952 43.76 121.96 45.104 121.96 47.024ZM164.931 12.656C164.931 9.96799 165.795 7.76 167.523 6.032C169.251 4.304 171.619 3.44 174.627 3.44C177.827 3.44 180.195 4.304 181.731 6.032C183.331 7.696 184.131 9.872 184.131 12.56C184.131 15.248 183.331 17.424 181.731 19.088C180.195 20.688 177.827 21.488 174.627 21.488C171.491 21.488 169.091 20.688 167.427 19.088C165.763 17.424 164.931 15.28 164.931 12.656ZM170.019 93.968C166.883 93.968 164.163 93.008 161.859 91.088C159.619 89.168 158.499 86.544 158.499 83.216C158.499 80.016 159.395 77.552 161.187 75.824C162.979 74.16 165.123 73.328 167.619 73.328C169.475 73.328 171.011 73.616 172.227 74.192C173.507 74.768 174.595 75.408 175.491 76.112C176.899 77.136 177.923 77.68 178.563 77.744C179.267 77.808 179.779 77.616 180.099 77.168C180.739 76.208 180.099 74.96 178.179 73.424L172.419 68.912C169.987 66.992 168.259 64.816 167.235 62.384C166.211 59.888 165.699 56.592 165.699 52.496L165.795 32.24C165.795 29.552 166.531 27.408 168.003 25.808C169.475 24.208 171.651 23.408 174.531 23.408C177.539 23.408 179.779 24.208 181.251 25.808C182.787 27.408 183.555 29.52 183.555 32.144L183.459 78.416C183.459 83.792 182.179 87.728 179.619 90.224C177.059 92.72 173.859 93.968 170.019 93.968ZM188.536 49.04C188.536 43.984 189.528 39.536 191.512 35.696C193.56 31.856 196.44 28.848 200.152 26.672C203.928 24.496 208.408 23.408 213.592 23.408C217.624 23.408 221.24 24.144 224.44 25.616C227.704 27.088 230.264 29.072 232.12 31.568C233.976 34 234.904 36.688 234.904 39.632C234.904 42.704 234.008 44.88 232.216 46.16C230.424 47.44 227.768 48.08 224.248 48.08H204.088C204.088 49.744 204.728 51.12 206.008 52.208C207.352 53.296 209.592 53.84 212.728 53.84C214.328 53.84 215.8 53.68 217.144 53.36C218.552 53.04 219.96 52.752 221.368 52.496C222.84 52.176 224.472 52.016 226.264 52.016C228.824 52.016 230.936 52.944 232.6 54.8C234.264 56.592 235.096 59.088 235.096 62.288C235.096 66.064 233.144 69.008 229.24 71.12C225.4 73.232 220.344 74.288 214.072 74.288C209.656 74.288 205.496 73.424 201.592 71.696C197.752 69.968 194.616 67.248 192.184 63.536C189.752 59.76 188.536 54.928 188.536 49.04ZM219.64 44.912C220.6 44.912 220.92 44.464 220.6 43.568C220.344 42.672 219.576 41.744 218.296 40.784C217.016 39.824 215.16 39.344 212.728 39.344C209.912 39.344 207.8 39.952 206.392 41.168C205.048 42.384 204.376 43.632 204.376 44.912H219.64ZM263.186 74.288C258.194 74.288 253.778 73.264 249.938 71.216C246.098 69.104 243.09 66.128 240.914 62.288C238.738 58.448 237.65 53.936 237.65 48.752C237.65 43.568 238.738 39.056 240.914 35.216C243.09 31.376 246.098 28.4 249.938 26.288C253.842 24.176 258.322 23.12 263.378 23.12C267.346 23.12 270.834 23.536 273.842 24.368C276.914 25.2 279.314 26.448 281.042 28.112C282.834 29.776 283.73 31.856 283.73 34.352C283.73 37.36 282.962 39.728 281.426 41.456C279.89 43.12 277.682 43.952 274.802 43.952C272.882 43.952 270.962 43.664 269.042 43.088C267.186 42.512 264.786 42.224 261.842 42.224C259.41 42.224 257.362 42.608 255.698 43.376C254.034 44.144 253.202 45.552 253.202 47.6C253.202 49.712 254.034 51.248 255.698 52.208C257.362 53.104 259.41 53.552 261.842 53.552C263.826 53.552 265.49 53.36 266.834 52.976C268.178 52.592 269.458 52.208 270.674 51.824C271.89 51.44 273.266 51.248 274.802 51.248C278.066 51.248 280.466 52.208 282.002 54.128C283.602 55.984 284.402 58.384 284.402 61.328C284.402 63.824 283.474 66.064 281.618 68.048C279.762 69.968 277.234 71.504 274.034 72.656C270.834 73.744 267.218 74.288 263.186 74.288ZM315.104 74.288C311.712 74.288 308.64 73.52 305.888 71.984C303.2 70.448 301.088 68.272 299.552 65.456C298.016 62.576 297.248 59.216 297.248 55.376V38.48L293.696 38.96C291.776 39.216 290.08 38.544 288.608 36.944C287.136 35.344 286.4 33.328 286.4 30.896C286.4 28.464 287.136 26.48 288.608 24.944C290.08 23.344 291.776 22.672 293.696 22.928L297.248 23.408L297.152 16.88C297.088 14.32 297.824 12.304 299.36 10.832C300.896 9.296 303.136 8.528 306.08 8.528C309.024 8.528 311.296 9.296 312.896 10.832C314.496 12.304 315.232 14.32 315.104 16.88L314.912 23.408L320 22.736C323.456 22.224 326.08 22.864 327.872 24.656C329.664 26.384 330.56 28.464 330.56 30.896C330.56 33.328 329.664 35.44 327.872 37.232C326.144 38.96 323.616 39.6 320.288 39.152L314.912 38.48V52.784C314.912 53.616 315.2 54.384 315.776 55.088C316.352 55.728 317.056 55.92 317.888 55.664C318.848 55.408 319.84 54.864 320.864 54.032C321.952 53.2 323.328 52.784 324.992 52.784C327.488 52.784 329.408 53.68 330.752 55.472C332.096 57.264 332.768 59.472 332.768 62.096C332.768 64.144 332.032 66.128 330.56 68.048C329.152 69.904 327.136 71.408 324.512 72.56C321.888 73.712 318.752 74.288 315.104 74.288ZM360.3 75.248C355.884 75.248 351.788 74.832 348.012 74C344.3 73.104 341.324 71.728 339.084 69.872C336.844 67.952 335.724 65.424 335.724 62.288C335.724 59.536 336.556 57.264 338.22 55.472C339.884 53.68 342.092 52.784 344.844 52.784C346.572 52.784 348.3 53.072 350.028 53.648C351.82 54.16 353.708 54.672 355.692 55.184C357.676 55.696 359.82 55.952 362.124 55.952C364.172 55.952 365.548 55.856 366.252 55.664C366.956 55.408 367.308 54.96 367.308 54.32C367.308 53.552 366.86 53.04 365.964 52.784C365.132 52.528 363.692 52.208 361.644 51.824L354.732 50.48C351.852 49.904 349.036 49.168 346.284 48.272C343.596 47.312 341.356 45.904 339.564 44.048C337.836 42.192 336.972 39.664 336.972 36.464C336.972 32.112 338.892 28.72 342.732 26.288C346.636 23.856 352.268 22.64 359.628 22.64C363.852 22.64 367.628 23.056 370.956 23.888C374.348 24.72 377.036 25.968 379.02 27.632C381.004 29.232 381.996 31.248 381.996 33.68C382.06 36.304 381.356 38.416 379.884 40.016C378.412 41.616 376.556 42.416 374.316 42.416C372.716 42.416 371.084 42.224 369.42 41.84C367.82 41.392 366.06 40.944 364.14 40.496C362.284 39.984 360.14 39.696 357.708 39.632C355.98 39.504 354.572 39.6 353.484 39.92C352.396 40.24 351.852 40.752 351.852 41.456C351.852 42.224 352.492 42.768 353.772 43.088C355.052 43.344 356.972 43.696 359.532 44.144L366.348 45.392C370.508 46.096 373.804 46.992 376.236 48.08C378.732 49.104 380.524 50.544 381.612 52.4C382.7 54.256 383.244 56.816 383.244 60.08C383.244 63.472 382.252 66.32 380.268 68.624C378.348 70.864 375.66 72.528 372.204 73.616C368.748 74.704 364.78 75.248 360.3 75.248Z" fill="#ECA6AF"/>
</g>
<defs>
<filter id="filter0_dii_15_42" x="0.344641" y="-1.56006" width="392.499" height="112.128" filterUnits="userSpaceOnUse" color-interpolation-filters="sRGB">
<feFlood flood-opacity="0" result="BackgroundImageFix"/>
<feColorMatrix in="SourceAlpha" type="matrix" values="0 0 0 0 0 0 0 0 0 0 0 0 0 0 0 0 0 0 127 0" result="hardAlpha"/>
<feOffset dy="7"/>
<feGaussianBlur stdDeviation="4.8"/>
<feComposite in2="hardAlpha" operator="out"/>
<feColorMatrix type="matrix" values="0 0 0 0 0 0 0 0 0 0 0 0 0 0 0 0 0 0 0.26 0"/>
<feBlend mode="normal" in2="BackgroundImageFix" result="effect1_dropShadow_15_42"/>
<feBlend mode="normal" in="SourceGraphic" in2="effect1_dropShadow_15_42" result="shape"/>
<feColorMatrix in="SourceAlpha" type="matrix" values="0 0 0 0 0 0 0 0 0 0 0 0 0 0 0 0 0 0 127 0" result="hardAlpha"/>
<feOffset dx="-4" dy="5"/>
<feGaussianBlur stdDeviation="4.35"/>
<feComposite in2="hardAlpha" operator="arithmetic" k2="-1" k3="1"/>
<feColorMatrix type="matrix" values="0 0 0 0 1 0 0 0 0 1 0 0 0 0 1 0 0 0 1 0"/>
<feBlend mode="normal" in2="shape" result="effect2_innerShadow_15_42"/>
<feColorMatrix in="SourceAlpha" type="matrix" values="0 0 0 0 0 0 0 0 0 0 0 0 0 0 0 0 0 0 127 0" result="hardAlpha"/>
<feOffset dy="-5"/>
<feGaussianBlur stdDeviation="5.75"/>
<feComposite in2="hardAlpha" operator="arithmetic" k2="-1" k3="1"/>
<feColorMatrix type="matrix" values="0 0 0 0 0.951228 0 0 0 0 0.835201 0 0 0 0 0.849705 0 0 0 1 0"/>
<feBlend mode="normal" in2="effect2_innerShadow_15_42" result="effect3_innerShadow_15_42"/>
</filter>
</defs>
</svg>
