<svg width="226" height="95" viewBox="0 0 226 95" fill="none" xmlns="http://www.w3.org/2000/svg">
<g filter="url(#filter0_dii_50_21)">
<path d="M34.4246 78.248C30.0086 78.248 25.9126 77.832 22.1366 77C18.4246 76.104 15.4486 74.728 13.2086 72.872C10.9686 70.952 9.84863 68.424 9.84863 65.288C9.84863 62.536 10.6806 60.264 12.3446 58.472C14.0086 56.68 16.2166 55.784 18.9686 55.784C20.6966 55.784 22.4246 56.072 24.1526 56.648C25.9446 57.16 27.8326 57.672 29.8166 58.184C31.8006 58.696 33.9446 58.952 36.2486 58.952C38.2966 58.952 39.6726 58.856 40.3766 58.664C41.0806 58.408 41.4326 57.96 41.4326 57.32C41.4326 56.552 40.9846 56.04 40.0886 55.784C39.2566 55.528 37.8166 55.208 35.7686 54.824L28.8566 53.48C25.9766 52.904 23.1606 52.168 20.4086 51.272C17.7206 50.312 15.4806 48.904 13.6886 47.048C11.9606 45.192 11.0966 42.664 11.0966 39.464C11.0966 35.112 13.0166 31.72 16.8566 29.288C20.7606 26.856 26.3926 25.64 33.7526 25.64C37.9766 25.64 41.7526 26.056 45.0806 26.888C48.4726 27.72 51.1606 28.968 53.1446 30.632C55.1286 32.232 56.1206 34.248 56.1206 36.68C56.1846 39.304 55.4806 41.416 54.0086 43.016C52.5366 44.616 50.6806 45.416 48.4406 45.416C46.8406 45.416 45.2086 45.224 43.5446 44.84C41.9446 44.392 40.1846 43.944 38.2646 43.496C36.4086 42.984 34.2646 42.696 31.8326 42.632C30.1046 42.504 28.6966 42.6 27.6086 42.92C26.5206 43.24 25.9766 43.752 25.9766 44.456C25.9766 45.224 26.6166 45.768 27.8966 46.088C29.1766 46.344 31.0966 46.696 33.6566 47.144L40.4726 48.392C44.6326 49.096 47.9286 49.992 50.3606 51.08C52.8566 52.104 54.6486 53.544 55.7366 55.4C56.8246 57.256 57.3686 59.816 57.3686 63.08C57.3686 66.472 56.3766 69.32 54.3926 71.624C52.4726 73.864 49.7846 75.528 46.3286 76.616C42.8726 77.704 38.9046 78.248 34.4246 78.248ZM60.7549 52.04C60.7549 46.984 61.7469 42.536 63.7309 38.696C65.7789 34.856 68.6589 31.848 72.3709 29.672C76.1469 27.496 80.6269 26.408 85.8109 26.408C89.8429 26.408 93.4589 27.144 96.6589 28.616C99.9229 30.088 102.483 32.072 104.339 34.568C106.195 37 107.123 39.688 107.123 42.632C107.123 45.704 106.227 47.88 104.435 49.16C102.643 50.44 99.9869 51.08 96.4669 51.08H76.3069C76.3069 52.744 76.9469 54.12 78.2269 55.208C79.5709 56.296 81.8109 56.84 84.9469 56.84C86.5469 56.84 88.0189 56.68 89.3629 56.36C90.7709 56.04 92.1789 55.752 93.5869 55.496C95.0589 55.176 96.6909 55.016 98.4829 55.016C101.043 55.016 103.155 55.944 104.819 57.8C106.483 59.592 107.315 62.088 107.315 65.288C107.315 69.064 105.363 72.008 101.459 74.12C97.6189 76.232 92.5629 77.288 86.2909 77.288C81.8749 77.288 77.7149 76.424 73.8109 74.696C69.9709 72.968 66.8349 70.248 64.4029 66.536C61.9709 62.76 60.7549 57.928 60.7549 52.04ZM91.8589 47.912C92.8189 47.912 93.1389 47.464 92.8189 46.568C92.5629 45.672 91.7949 44.744 90.5149 43.784C89.2349 42.824 87.3789 42.344 84.9469 42.344C82.1309 42.344 80.0189 42.952 78.6109 44.168C77.2669 45.384 76.5949 46.632 76.5949 47.912H91.8589ZM120.982 77C118.166 77 115.894 76.168 114.166 74.504C112.502 72.776 111.67 70.664 111.67 68.168V36.392C111.67 33.704 112.47 31.432 114.07 29.576C115.67 27.72 117.974 26.792 120.982 26.792C123.926 26.792 126.166 27.72 127.702 29.576C129.238 31.432 130.006 33.768 130.006 36.584V41.384H131.734C131.734 37.736 132.374 34.856 133.654 32.744C134.998 30.632 136.694 29.128 138.742 28.232C140.79 27.272 142.838 26.792 144.886 26.792C149.814 26.792 153.43 28.584 155.734 32.168C158.038 35.688 159.19 40.712 159.19 47.24V68.168C159.19 70.664 158.358 72.776 156.694 74.504C155.03 76.168 152.79 77 149.974 77C147.094 77 144.79 76.168 143.062 74.504C141.398 72.776 140.566 70.664 140.566 68.168V51.176C140.566 48.872 140.118 47.08 139.222 45.8C138.39 44.52 137.142 43.88 135.478 43.88C133.558 43.88 132.15 44.584 131.254 45.992C130.422 47.4 130.006 49.192 130.006 51.368V68.168C130.006 70.664 129.206 72.776 127.606 74.504C126.006 76.168 123.798 77 120.982 77ZM181.258 77C169.61 77 163.786 68.424 163.786 51.272C163.786 43.848 165.226 37.928 168.106 33.512C170.986 29.032 175.306 26.792 181.066 26.792C184.202 26.792 186.73 27.432 188.65 28.712C190.634 29.992 192.17 31.752 193.258 33.992C194.41 36.168 195.242 38.696 195.754 41.576L196.042 41.48V12.392C196.042 9.768 196.81 7.56 198.346 5.768C199.946 3.912 202.25 2.984 205.258 2.984C208.202 2.984 210.378 3.912 211.786 5.768C213.258 7.56 213.994 9.832 213.994 12.584V55.784C213.994 57.96 214.154 59.976 214.474 61.832C214.858 63.624 215.146 65.416 215.338 67.208C215.53 69.64 215.018 71.752 213.802 73.544C212.65 75.272 210.57 76.392 207.562 76.904C203.658 77.544 200.746 76.872 198.826 74.888C196.97 72.904 196.042 69.96 196.042 66.056V62.504H194.218C194.218 67.176 193.034 70.76 190.666 73.256C188.362 75.752 185.226 77 181.258 77ZM179.818 50.408C179.818 52.392 180.426 53.864 181.642 54.824C182.858 55.784 185.034 56.264 188.17 56.264C191.37 56.264 193.578 55.784 194.794 54.824C196.01 53.864 196.618 52.392 196.618 50.408C196.618 48.36 196.01 46.888 194.794 45.992C193.642 45.032 191.466 44.552 188.266 44.552C185.066 44.552 182.858 45.032 181.642 45.992C180.426 46.888 179.818 48.36 179.818 50.408Z" fill="#ECA6AF"/>
</g>
<defs>
<filter id="filter0_dii_50_21" x="0.248632" y="-2.01611" width="224.977" height="96.8642" filterUnits="userSpaceOnUse" color-interpolation-filters="sRGB">
<feFlood flood-opacity="0" result="BackgroundImageFix"/>
<feColorMatrix in="SourceAlpha" type="matrix" values="0 0 0 0 0 0 0 0 0 0 0 0 0 0 0 0 0 0 127 0" result="hardAlpha"/>
<feOffset dy="7"/>
<feGaussianBlur stdDeviation="4.8"/>
<feComposite in2="hardAlpha" operator="out"/>
<feColorMatrix type="matrix" values="0 0 0 0 0 0 0 0 0 0 0 0 0 0 0 0 0 0 0.26 0"/>
<feBlend mode="normal" in2="BackgroundImageFix" result="effect1_dropShadow_50_21"/>
<feBlend mode="normal" in="SourceGraphic" in2="effect1_dropShadow_50_21" result="shape"/>
<feColorMatrix in="SourceAlpha" type="matrix" values="0 0 0 0 0 0 0 0 0 0 0 0 0 0 0 0 0 0 127 0" result="hardAlpha"/>
<feOffset dx="-4" dy="5"/>
<feGaussianBlur stdDeviation="4.35"/>
<feComposite in2="hardAlpha" operator="arithmetic" k2="-1" k3="1"/>
<feColorMatrix type="matrix" values="0 0 0 0 1 0 0 0 0 1 0 0 0 0 1 0 0 0 1 0"/>
<feBlend mode="normal" in2="shape" result="effect2_innerShadow_50_21"/>
<feColorMatrix in="SourceAlpha" type="matrix" values="0 0 0 0 0 0 0 0 0 0 0 0 0 0 0 0 0 0 127 0" result="hardAlpha"/>
<feOffset dy="-5"/>
<feGaussianBlur stdDeviation="5.75"/>
<feComposite in2="hardAlpha" operator="arithmetic" k2="-1" k3="1"/>
<feColorMatrix type="matrix" values="0 0 0 0 0.951228 0 0 0 0 0.835201 0 0 0 0 0.849705 0 0 0 1 0"/>
<feBlend mode="normal" in2="effect2_innerShadow_50_21" result="effect3_innerShadow_50_21"/>
</filter>
</defs>
</svg>
