<svg width="608" height="114" viewBox="0 0 608 114" fill="none" xmlns="http://www.w3.org/2000/svg">
<g filter="url(#filter0_dii_15_33)">
<path d="M44.808 77.288C40.52 77.288 36.968 76.456 34.152 74.792C31.4 73.128 29.128 70.728 27.336 67.592C25.608 64.456 24.04 60.648 22.632 56.168L11.88 21.704C10.856 18.504 10.92 15.72 12.072 13.352C13.288 10.92 15.432 9.256 18.504 8.36C21.32 7.528 23.88 7.72 26.184 8.936C28.488 10.088 30.056 12.072 30.888 14.888L41.352 48.104C42.44 51.688 43.816 54.088 45.48 55.304C47.208 56.456 49.064 56.712 51.048 56.072C53.096 55.496 54.408 54.344 54.984 52.616C55.56 50.824 55.4 48.136 54.504 44.552C53.032 38.152 52.04 33.128 51.528 29.48C51.016 25.832 50.76 22.952 50.76 20.84C50.76 17.256 51.72 14.184 53.64 11.624C55.624 8.99999 58.664 7.68799 62.76 7.68799C66.792 7.68799 69.704 8.99999 71.496 11.624C73.352 14.184 74.28 17.256 74.28 20.84C74.28 22.952 73.992 25.128 73.416 27.368C72.84 29.608 72.168 31.912 71.4 34.28L62.856 60.104C61.704 63.56 60.424 66.6 59.016 69.224C57.672 71.784 55.88 73.768 53.64 75.176C51.464 76.584 48.52 77.288 44.808 77.288ZM77.7705 15.656C77.7705 12.904 78.6025 10.696 80.2665 9.032C81.9945 7.304 84.3625 6.44 87.3705 6.44C90.5705 6.44 92.9385 7.272 94.4745 8.936C96.0745 10.6 96.8745 12.808 96.8745 15.56C96.8745 18.248 96.0745 20.424 94.4745 22.088C92.9385 23.688 90.5705 24.488 87.3705 24.488C84.2345 24.488 81.8345 23.688 80.1705 22.088C78.5705 20.424 77.7705 18.28 77.7705 15.656ZM87.3705 77C84.3625 77 82.1225 76.168 80.6505 74.504C79.1785 72.84 78.4425 70.76 78.4425 68.264V35.432C78.4425 32.68 79.1785 30.504 80.6505 28.904C82.1225 27.304 84.3625 26.504 87.3705 26.504C90.3785 26.504 92.6185 27.304 94.0905 28.904C95.6265 30.504 96.3945 32.616 96.3945 35.24V68.264C96.3945 70.76 95.5945 72.84 93.9945 74.504C92.4585 76.168 90.2505 77 87.3705 77ZM125.42 77.288C120.428 77.288 116.012 76.264 112.172 74.216C108.332 72.104 105.324 69.128 103.148 65.288C100.972 61.448 99.8843 56.936 99.8843 51.752C99.8843 46.568 100.972 42.056 103.148 38.216C105.324 34.376 108.332 31.4 112.172 29.288C116.076 27.176 120.556 26.12 125.612 26.12C129.58 26.12 133.068 26.536 136.076 27.368C139.148 28.2 141.548 29.448 143.276 31.112C145.068 32.776 145.964 34.856 145.964 37.352C145.964 40.36 145.196 42.728 143.66 44.456C142.124 46.12 139.916 46.952 137.036 46.952C135.116 46.952 133.196 46.664 131.276 46.088C129.42 45.512 127.02 45.224 124.076 45.224C121.644 45.224 119.596 45.608 117.932 46.376C116.268 47.144 115.436 48.552 115.436 50.6C115.436 52.712 116.268 54.248 117.932 55.208C119.596 56.104 121.644 56.552 124.076 56.552C126.06 56.552 127.724 56.36 129.068 55.976C130.412 55.592 131.692 55.208 132.908 54.824C134.124 54.44 135.5 54.248 137.036 54.248C140.3 54.248 142.7 55.208 144.236 57.128C145.836 58.984 146.636 61.384 146.636 64.328C146.636 66.824 145.708 69.064 143.852 71.048C141.996 72.968 139.468 74.504 136.268 75.656C133.068 76.744 129.452 77.288 125.42 77.288ZM159.652 77C156.836 77 154.596 76.168 152.932 74.504C151.268 72.776 150.436 70.664 150.436 68.168V12.584C150.436 9.896 151.236 7.62399 152.836 5.768C154.5 3.912 156.836 2.984 159.844 2.984C162.788 2.984 164.996 3.912 166.468 5.768C168.004 7.62399 168.772 9.928 168.772 12.68V41.768L169.06 41.864C169.38 39.176 170.212 36.712 171.556 34.472C172.9 32.168 174.788 30.312 177.22 28.904C179.652 27.496 182.628 26.792 186.148 26.792C190.884 26.792 194.692 28.104 197.572 30.728C200.452 33.352 201.892 36.936 201.892 41.48C201.892 44.616 201.252 47.112 199.972 48.968C198.756 50.76 197.092 52.008 194.98 52.712C192.868 53.416 190.532 53.736 187.972 53.672V55.304C193.668 55.304 197.7 56.456 200.068 58.76C202.5 61 203.716 63.848 203.716 67.304C203.716 70.504 202.756 72.968 200.836 74.696C198.916 76.424 196.612 77.256 193.924 77.192C190.98 77.128 188.548 76.264 186.628 74.6C184.708 72.936 183.108 70.696 181.828 67.88L177.7 59.144C176.868 57.416 175.78 56.168 174.436 55.4C173.156 54.632 171.268 54.344 168.772 54.536V68.168C168.772 70.664 167.94 72.776 166.276 74.504C164.676 76.168 162.468 77 159.652 77ZM170.788 48.008C170.788 48.904 171.236 49.576 172.132 50.024C173.092 50.408 175.044 50.6 177.988 50.6C180.868 50.6 182.788 50.408 183.748 50.024C184.708 49.64 185.188 48.968 185.188 48.008C185.188 47.112 184.708 46.44 183.748 45.992C182.788 45.544 180.9 45.32 178.084 45.32C175.076 45.32 173.092 45.544 172.132 45.992C171.236 46.44 170.788 47.112 170.788 48.008ZM224.841 96.776C220.553 96.776 217.033 96.072 214.281 94.664C211.593 93.256 209.481 91.4 207.945 89.096C206.665 87.112 205.929 85.032 205.737 82.856C205.609 80.68 206.025 78.664 206.985 76.808C207.945 74.888 209.385 73.416 211.305 72.392C213.289 71.304 215.273 70.888 217.257 71.144C219.241 71.336 221.065 72.072 222.729 73.352C224.393 74.568 225.673 76.168 226.569 78.152C227.529 80.264 228.489 81.8 229.449 82.76C230.473 83.784 231.785 84.008 233.385 83.432C234.921 82.92 235.465 81.512 235.017 79.208C234.633 76.904 233.801 74.184 232.521 71.048H228.969C226.217 71.048 223.465 70.056 220.713 68.072C217.961 66.088 215.657 62.952 213.801 58.664L205.929 40.424C204.713 37.544 204.585 34.888 205.545 32.456C206.569 30.024 208.393 28.264 211.017 27.176C213.449 26.088 215.849 26.024 218.217 26.984C220.585 27.944 222.441 29.992 223.785 33.128L231.081 50.12C232.297 52.872 233.609 54.856 235.017 56.072C236.489 57.288 238.025 57.48 239.625 56.648C241.033 55.88 241.801 54.824 241.929 53.48C242.057 52.072 241.385 50.376 239.913 48.392C239.273 47.496 238.505 46.504 237.609 45.416C236.777 44.328 236.009 43.08 235.305 41.672C234.665 40.2 234.345 38.568 234.345 36.776C234.345 33.768 235.369 31.304 237.417 29.384C239.465 27.4 242.153 26.408 245.481 26.408C248.489 26.408 250.889 27.368 252.681 29.288C254.537 31.208 255.465 33.704 255.465 36.776C255.465 38.952 255.209 41.352 254.697 43.976C254.185 46.6 253.609 49.032 252.969 51.272L246.057 76.52C245.033 80.296 243.689 83.72 242.025 86.792C240.361 89.864 238.153 92.296 235.401 94.088C232.649 95.88 229.129 96.776 224.841 96.776ZM286.895 77C283.695 77 281.263 76.008 279.599 74.024C277.935 72.04 277.103 69.384 277.103 66.056V21.032C277.103 17.704 277.711 15.016 278.927 12.968C280.207 10.856 281.839 9.32 283.823 8.36C285.871 7.4 288.079 6.92 290.447 6.92C293.967 6.92 296.943 7.848 299.375 9.704C301.807 11.56 303.695 14.824 305.039 19.496L315.407 54.92H316.943V18.056C316.943 14.664 317.807 12.008 319.535 10.088C321.263 8.104 323.727 7.112 326.927 7.112C330.255 7.112 332.719 8.104 334.319 10.088C335.983 12.008 336.815 14.664 336.815 18.056V61.448C336.815 66.824 335.631 70.792 333.263 73.352C330.895 75.912 327.567 77.192 323.279 77.192C318.927 77.192 315.535 76.04 313.103 73.736C310.671 71.432 308.815 68.04 307.535 63.56L300.719 40.232C300.591 39.592 300.335 39.016 299.951 38.504C299.631 37.928 299.183 37.64 298.607 37.64C297.903 37.64 297.423 37.928 297.167 38.504C296.911 39.016 296.783 39.592 296.783 40.232V66.056C296.783 69.384 295.951 72.04 294.287 74.024C292.623 76.008 290.159 77 286.895 77ZM364.804 96.776C360.9 96.776 357.572 96.36 354.82 95.528C352.132 94.696 349.54 93.416 347.044 91.688C344.868 90.152 343.332 88.008 342.436 85.256C341.54 82.504 341.988 79.72 343.78 76.904C344.932 75.176 346.212 73.992 347.62 73.352C349.092 72.712 350.5 72.456 351.844 72.584C353.252 72.648 354.468 72.936 355.492 73.448C357.732 74.536 359.46 75.336 360.676 75.848C361.956 76.296 363.396 76.52 364.996 76.52C367.364 76.52 369.348 75.688 370.948 74.024C372.612 72.36 373.444 70.024 373.444 67.016V59.24H371.716C371.268 62.632 369.956 65.32 367.78 67.304C365.668 69.224 362.756 70.184 359.044 70.184C356.228 70.184 353.476 69.48 350.788 68.072C348.1 66.664 345.892 64.424 344.164 61.352C342.436 58.28 341.572 54.216 341.572 49.16C341.572 41.736 343.204 36.2 346.468 32.552C349.732 28.904 353.956 27.08 359.14 27.08C362.724 27.08 365.796 28.296 368.356 30.728C370.916 33.096 372.196 36.424 372.196 40.712L372.484 40.616V35.24C372.484 33 373.188 31.048 374.596 29.384C376.068 27.656 378.34 26.792 381.412 26.792C384.676 26.792 387.012 27.656 388.42 29.384C389.892 31.048 390.628 33 390.628 35.24L390.724 65.48C390.788 72.136 389.956 77.8 388.228 82.472C386.564 87.144 383.812 90.696 379.972 93.128C376.196 95.56 371.14 96.776 364.804 96.776ZM357.7 47.528C357.7 50.984 360.004 52.712 364.612 52.712C367.62 52.712 369.732 52.296 370.948 51.464C372.164 50.632 372.772 49.32 372.772 47.528C372.772 45.672 372.132 44.392 370.852 43.688C369.636 42.984 367.524 42.632 364.516 42.632C362.34 42.632 360.644 42.984 359.428 43.688C358.276 44.392 357.7 45.672 357.7 47.528ZM410.952 77C406.472 77 402.824 75.304 400.008 71.912C397.192 68.52 395.752 63.752 395.688 57.608L395.592 35.432C395.592 32.68 396.424 30.536 398.088 29C399.816 27.4 402.152 26.6 405.096 26.6C407.912 26.6 410.184 27.4 411.912 29C413.64 30.536 414.504 32.68 414.504 35.432V55.496C414.504 60.296 416.392 62.696 420.168 62.696C422.024 62.696 423.272 62.024 423.912 60.68C424.552 59.272 424.872 57.48 424.872 55.304V35.432C424.872 32.936 425.736 30.856 427.464 29.192C429.192 27.464 431.432 26.6 434.184 26.6C437.064 26.6 439.272 27.464 440.808 29.192C442.408 30.856 443.208 32.936 443.208 35.432V66.92C443.208 69.992 442.504 72.456 441.096 74.312C439.752 76.104 437.544 77 434.472 77C431.464 77 429.096 76.104 427.368 74.312C425.704 72.456 424.872 69.992 424.872 66.92V65.288H423.144C423.144 69 422.024 71.88 419.784 73.928C417.608 75.976 414.664 77 410.952 77ZM466.81 96.776C462.522 96.776 459.002 96.072 456.25 94.664C453.562 93.256 451.45 91.4 449.914 89.096C448.634 87.112 447.898 85.032 447.706 82.856C447.578 80.68 447.994 78.664 448.954 76.808C449.914 74.888 451.354 73.416 453.274 72.392C455.258 71.304 457.242 70.888 459.226 71.144C461.21 71.336 463.034 72.072 464.698 73.352C466.362 74.568 467.642 76.168 468.538 78.152C469.498 80.264 470.458 81.8 471.418 82.76C472.442 83.784 473.754 84.008 475.354 83.432C476.89 82.92 477.434 81.512 476.986 79.208C476.602 76.904 475.77 74.184 474.49 71.048H470.938C468.186 71.048 465.434 70.056 462.682 68.072C459.93 66.088 457.626 62.952 455.77 58.664L447.898 40.424C446.682 37.544 446.554 34.888 447.514 32.456C448.538 30.024 450.362 28.264 452.986 27.176C455.418 26.088 457.818 26.024 460.186 26.984C462.554 27.944 464.41 29.992 465.754 33.128L473.05 50.12C474.266 52.872 475.578 54.856 476.986 56.072C478.458 57.288 479.994 57.48 481.594 56.648C483.002 55.88 483.77 54.824 483.898 53.48C484.026 52.072 483.354 50.376 481.882 48.392C481.242 47.496 480.474 46.504 479.578 45.416C478.746 44.328 477.978 43.08 477.274 41.672C476.634 40.2 476.314 38.568 476.314 36.776C476.314 33.768 477.338 31.304 479.386 29.384C481.434 27.4 484.122 26.408 487.45 26.408C490.458 26.408 492.858 27.368 494.65 29.288C496.506 31.208 497.434 33.704 497.434 36.776C497.434 38.952 497.178 41.352 496.666 43.976C496.154 46.6 495.578 49.032 494.938 51.272L488.026 76.52C487.002 80.296 485.658 83.72 483.994 86.792C482.33 89.864 480.122 92.296 477.37 94.088C474.618 95.88 471.098 96.776 466.81 96.776ZM499.083 52.04C499.083 46.984 500.075 42.536 502.059 38.696C504.107 34.856 506.987 31.848 510.699 29.672C514.475 27.496 518.955 26.408 524.139 26.408C528.171 26.408 531.787 27.144 534.987 28.616C538.251 30.088 540.811 32.072 542.667 34.568C544.523 37 545.451 39.688 545.451 42.632C545.451 45.704 544.555 47.88 542.763 49.16C540.971 50.44 538.315 51.08 534.795 51.08H514.635C514.635 52.744 515.275 54.12 516.555 55.208C517.899 56.296 520.139 56.84 523.275 56.84C524.875 56.84 526.347 56.68 527.691 56.36C529.099 56.04 530.507 55.752 531.915 55.496C533.387 55.176 535.019 55.016 536.811 55.016C539.371 55.016 541.483 55.944 543.147 57.8C544.811 59.592 545.643 62.088 545.643 65.288C545.643 69.064 543.691 72.008 539.787 74.12C535.947 76.232 530.891 77.288 524.619 77.288C520.203 77.288 516.043 76.424 512.139 74.696C508.299 72.968 505.163 70.248 502.731 66.536C500.299 62.76 499.083 57.928 499.083 52.04ZM530.187 47.912C531.147 47.912 531.467 47.464 531.147 46.568C530.891 45.672 530.123 44.744 528.843 43.784C527.563 42.824 525.707 42.344 523.275 42.344C520.459 42.344 518.347 42.952 516.939 44.168C515.595 45.384 514.923 46.632 514.923 47.912H530.187ZM559.31 77C556.494 77 554.222 76.168 552.494 74.504C550.83 72.776 549.998 70.664 549.998 68.168V36.392C549.998 33.704 550.798 31.432 552.398 29.576C553.998 27.72 556.302 26.792 559.31 26.792C562.254 26.792 564.494 27.72 566.03 29.576C567.566 31.432 568.334 33.768 568.334 36.584V41.384H570.062C570.062 37.736 570.702 34.856 571.982 32.744C573.326 30.632 575.022 29.128 577.07 28.232C579.118 27.272 581.166 26.792 583.214 26.792C588.142 26.792 591.758 28.584 594.062 32.168C596.366 35.688 597.518 40.712 597.518 47.24V68.168C597.518 70.664 596.686 72.776 595.022 74.504C593.358 76.168 591.118 77 588.302 77C585.422 77 583.118 76.168 581.39 74.504C579.726 72.776 578.894 70.664 578.894 68.168V51.176C578.894 48.872 578.446 47.08 577.55 45.8C576.718 44.52 575.47 43.88 573.806 43.88C571.886 43.88 570.478 44.584 569.582 45.992C568.75 47.4 568.334 49.192 568.334 51.368V68.168C568.334 70.664 567.534 72.776 565.934 74.504C564.334 76.168 562.126 77 559.31 77Z" fill="#ECA6AF"/>
</g>
<defs>
<filter id="filter0_dii_15_33" x="0.743994" y="-2.01599" width="606.374" height="115.392" filterUnits="userSpaceOnUse" color-interpolation-filters="sRGB">
<feFlood flood-opacity="0" result="BackgroundImageFix"/>
<feColorMatrix in="SourceAlpha" type="matrix" values="0 0 0 0 0 0 0 0 0 0 0 0 0 0 0 0 0 0 127 0" result="hardAlpha"/>
<feOffset dy="7"/>
<feGaussianBlur stdDeviation="4.8"/>
<feComposite in2="hardAlpha" operator="out"/>
<feColorMatrix type="matrix" values="0 0 0 0 0 0 0 0 0 0 0 0 0 0 0 0 0 0 0.26 0"/>
<feBlend mode="normal" in2="BackgroundImageFix" result="effect1_dropShadow_15_33"/>
<feBlend mode="normal" in="SourceGraphic" in2="effect1_dropShadow_15_33" result="shape"/>
<feColorMatrix in="SourceAlpha" type="matrix" values="0 0 0 0 0 0 0 0 0 0 0 0 0 0 0 0 0 0 127 0" result="hardAlpha"/>
<feOffset dx="-4" dy="5"/>
<feGaussianBlur stdDeviation="4.35"/>
<feComposite in2="hardAlpha" operator="arithmetic" k2="-1" k3="1"/>
<feColorMatrix type="matrix" values="0 0 0 0 1 0 0 0 0 1 0 0 0 0 1 0 0 0 1 0"/>
<feBlend mode="normal" in2="shape" result="effect2_innerShadow_15_33"/>
<feColorMatrix in="SourceAlpha" type="matrix" values="0 0 0 0 0 0 0 0 0 0 0 0 0 0 0 0 0 0 127 0" result="hardAlpha"/>
<feOffset dy="-5"/>
<feGaussianBlur stdDeviation="5.75"/>
<feComposite in2="hardAlpha" operator="arithmetic" k2="-1" k3="1"/>
<feColorMatrix type="matrix" values="0 0 0 0 0.951228 0 0 0 0 0.835201 0 0 0 0 0.849705 0 0 0 1 0"/>
<feBlend mode="normal" in2="effect2_innerShadow_15_33" result="effect3_innerShadow_15_33"/>
</filter>
</defs>
</svg>
