<svg width="181" height="115" viewBox="0 0 181 115" fill="none" xmlns="http://www.w3.org/2000/svg">
<g filter="url(#filter0_dii_53_3)">
<path d="M26.904 40.144C24.76 40.144 22.984 39.728 21.576 38.896C20.2 38.064 19.064 36.864 18.168 35.296C17.304 33.728 16.52 31.824 15.816 29.584L10.44 12.352C9.928 10.752 9.96 9.36 10.536 8.176C11.144 6.96 12.216 6.128 13.752 5.68C15.16 5.264 16.44 5.36 17.592 5.968C18.744 6.544 19.528 7.536 19.944 8.944L25.176 25.552C25.72 27.344 26.408 28.544 27.24 29.152C28.104 29.728 29.032 29.856 30.024 29.536C31.048 29.248 31.704 28.672 31.992 27.808C32.28 26.912 32.2 25.568 31.752 23.776C31.016 20.576 30.52 18.064 30.264 16.24C30.008 14.416 29.88 12.976 29.88 11.92C29.88 10.128 30.36 8.592 31.32 7.312C32.312 6 33.832 5.344 35.88 5.344C37.896 5.344 39.352 6 40.248 7.312C41.176 8.592 41.64 10.128 41.64 11.92C41.64 12.976 41.496 14.064 41.208 15.184C40.92 16.304 40.584 17.456 40.2 18.64L35.928 31.552C35.352 33.28 34.712 34.8 34.008 36.112C33.336 37.392 32.44 38.384 31.32 39.088C30.232 39.792 28.76 40.144 26.904 40.144ZM43.3853 9.328C43.3853 7.952 43.8013 6.848 44.6333 6.016C45.4973 5.152 46.6813 4.72 48.1853 4.72C49.7853 4.72 50.9693 5.136 51.7373 5.968C52.5373 6.8 52.9373 7.904 52.9373 9.28C52.9373 10.624 52.5373 11.712 51.7373 12.544C50.9693 13.344 49.7853 13.744 48.1853 13.744C46.6173 13.744 45.4173 13.344 44.5853 12.544C43.7853 11.712 43.3853 10.64 43.3853 9.328ZM48.1853 40C46.6813 40 45.5613 39.584 44.8253 38.752C44.0893 37.92 43.7213 36.88 43.7213 35.632V19.216C43.7213 17.84 44.0893 16.752 44.8253 15.952C45.5613 15.152 46.6813 14.752 48.1853 14.752C49.6893 14.752 50.8093 15.152 51.5453 15.952C52.3133 16.752 52.6973 17.808 52.6973 19.12V35.632C52.6973 36.88 52.2973 37.92 51.4973 38.752C50.7293 39.584 49.6253 40 48.1853 40ZM67.2101 40.144C64.7141 40.144 62.5061 39.632 60.5861 38.608C58.6661 37.552 57.1621 36.064 56.0741 34.144C54.9861 32.224 54.4421 29.968 54.4421 27.376C54.4421 24.784 54.9861 22.528 56.0741 20.608C57.1621 18.688 58.6661 17.2 60.5861 16.144C62.5381 15.088 64.7781 14.56 67.3061 14.56C69.2901 14.56 71.0341 14.768 72.5381 15.184C74.0741 15.6 75.2741 16.224 76.1381 17.056C77.0341 17.888 77.4821 18.928 77.4821 20.176C77.4821 21.68 77.0981 22.864 76.3301 23.728C75.5621 24.56 74.4581 24.976 73.0181 24.976C72.0581 24.976 71.0981 24.832 70.1381 24.544C69.2101 24.256 68.0101 24.112 66.5381 24.112C65.3221 24.112 64.2981 24.304 63.4661 24.688C62.6341 25.072 62.2181 25.776 62.2181 26.8C62.2181 27.856 62.6341 28.624 63.4661 29.104C64.2981 29.552 65.3221 29.776 66.5381 29.776C67.5301 29.776 68.3621 29.68 69.0341 29.488C69.7061 29.296 70.3461 29.104 70.9541 28.912C71.5621 28.72 72.2501 28.624 73.0181 28.624C74.6501 28.624 75.8501 29.104 76.6181 30.064C77.4181 30.992 77.8181 32.192 77.8181 33.664C77.8181 34.912 77.3541 36.032 76.4261 37.024C75.4981 37.984 74.2341 38.752 72.6341 39.328C71.0341 39.872 69.2261 40.144 67.2101 40.144ZM84.3259 40C82.9179 40 81.7979 39.584 80.9659 38.752C80.1339 37.888 79.7179 36.832 79.7179 35.584V7.792C79.7179 6.448 80.1179 5.312 80.9179 4.384C81.7499 3.456 82.9179 2.992 84.4219 2.992C85.8939 2.992 86.9979 3.456 87.7339 4.384C88.5019 5.312 88.8859 6.464 88.8859 7.84V22.384L89.0299 22.432C89.1899 21.088 89.6059 19.856 90.2779 18.736C90.9499 17.584 91.8939 16.656 93.1099 15.952C94.3259 15.248 95.8139 14.896 97.5739 14.896C99.9419 14.896 101.846 15.552 103.286 16.864C104.726 18.176 105.446 19.968 105.446 22.24C105.446 23.808 105.126 25.056 104.486 25.984C103.878 26.88 103.046 27.504 101.99 27.856C100.934 28.208 99.7659 28.368 98.4859 28.336V29.152C101.334 29.152 103.35 29.728 104.534 30.88C105.75 32 106.358 33.424 106.358 35.152C106.358 36.752 105.878 37.984 104.918 38.848C103.958 39.712 102.806 40.128 101.462 40.096C99.9899 40.064 98.7739 39.632 97.8139 38.8C96.8539 37.968 96.0539 36.848 95.4139 35.44L93.3499 31.072C92.9339 30.208 92.3899 29.584 91.7179 29.2C91.0779 28.816 90.1339 28.672 88.8859 28.768V35.584C88.8859 36.832 88.4699 37.888 87.6379 38.752C86.8379 39.584 85.7339 40 84.3259 40ZM89.8939 25.504C89.8939 25.952 90.1179 26.288 90.5659 26.512C91.0459 26.704 92.0219 26.8 93.4939 26.8C94.9339 26.8 95.8939 26.704 96.3739 26.512C96.8539 26.32 97.0939 25.984 97.0939 25.504C97.0939 25.056 96.8539 24.72 96.3739 24.496C95.8939 24.272 94.9499 24.16 93.5419 24.16C92.0379 24.16 91.0459 24.272 90.5659 24.496C90.1179 24.72 89.8939 25.056 89.8939 25.504ZM116.921 49.888C114.777 49.888 113.017 49.536 111.641 48.832C110.297 48.128 109.241 47.2 108.473 46.048C107.833 45.056 107.465 44.016 107.369 42.928C107.305 41.84 107.513 40.832 107.993 39.904C108.473 38.944 109.193 38.208 110.153 37.696C111.145 37.152 112.137 36.944 113.129 37.072C114.121 37.168 115.033 37.536 115.865 38.176C116.697 38.784 117.337 39.584 117.785 40.576C118.265 41.632 118.745 42.4 119.225 42.88C119.737 43.392 120.393 43.504 121.193 43.216C121.961 42.96 122.233 42.256 122.009 41.104C121.817 39.952 121.401 38.592 120.761 37.024H118.984C117.609 37.024 116.233 36.528 114.857 35.536C113.481 34.544 112.329 32.976 111.401 30.832L107.465 21.712C106.857 20.272 106.793 18.944 107.273 17.728C107.785 16.512 108.697 15.632 110.009 15.088C111.225 14.544 112.425 14.512 113.609 14.992C114.793 15.472 115.721 16.496 116.393 18.064L120.041 26.56C120.649 27.936 121.305 28.928 122.009 29.536C122.745 30.144 123.513 30.24 124.313 29.824C125.017 29.44 125.401 28.912 125.465 28.24C125.529 27.536 125.193 26.688 124.457 25.696C124.137 25.248 123.753 24.752 123.305 24.208C122.889 23.664 122.505 23.04 122.153 22.336C121.833 21.6 121.673 20.784 121.673 19.888C121.673 18.384 122.185 17.152 123.209 16.192C124.233 15.2 125.577 14.704 127.241 14.704C128.745 14.704 129.945 15.184 130.841 16.144C131.769 17.104 132.233 18.352 132.233 19.888C132.233 20.976 132.105 22.176 131.849 23.488C131.593 24.8 131.305 26.016 130.984 27.136L127.529 39.76C127.017 41.648 126.345 43.36 125.513 44.896C124.681 46.432 123.577 47.648 122.201 48.544C120.825 49.44 119.065 49.888 116.921 49.888ZM15.432 88C13.832 88 12.616 87.504 11.784 86.512C10.952 85.52 10.536 84.192 10.536 82.528V60.016C10.536 58.352 10.84 57.008 11.448 55.984C12.088 54.928 12.904 54.16 13.896 53.68C14.92 53.2 16.024 52.96 17.208 52.96C18.968 52.96 20.456 53.424 21.672 54.352C22.888 55.28 23.832 56.912 24.504 59.248L29.688 76.96H30.456V58.528C30.456 56.832 30.888 55.504 31.752 54.544C32.616 53.552 33.848 53.056 35.448 53.056C37.112 53.056 38.344 53.552 39.144 54.544C39.976 55.504 40.392 56.832 40.392 58.528V80.224C40.392 82.912 39.8 84.896 38.616 86.176C37.432 87.456 35.768 88.096 33.624 88.096C31.448 88.096 29.752 87.52 28.536 86.368C27.32 85.216 26.392 83.52 25.752 81.28L22.344 69.616C22.28 69.296 22.152 69.008 21.96 68.752C21.8 68.464 21.576 68.32 21.288 68.32C20.936 68.32 20.696 68.464 20.568 68.752C20.44 69.008 20.376 69.296 20.376 69.616V82.528C20.376 84.192 19.96 85.52 19.128 86.512C18.296 87.504 17.064 88 15.432 88ZM54.3863 97.888C52.4343 97.888 50.7703 97.68 49.3943 97.264C48.0503 96.848 46.7543 96.208 45.5063 95.344C44.4183 94.576 43.6503 93.504 43.2023 92.128C42.7543 90.752 42.9783 89.36 43.8743 87.952C44.4503 87.088 45.0903 86.496 45.7943 86.176C46.5303 85.856 47.2343 85.728 47.9062 85.792C48.6102 85.824 49.2183 85.968 49.7303 86.224C50.8503 86.768 51.7143 87.168 52.3223 87.424C52.9623 87.648 53.6823 87.76 54.4823 87.76C55.6663 87.76 56.6583 87.344 57.4583 86.512C58.2903 85.68 58.7063 84.512 58.7063 83.008V79.12H57.8423C57.6183 80.816 56.9623 82.16 55.8743 83.152C54.8183 84.112 53.3623 84.592 51.5063 84.592C50.0983 84.592 48.7223 84.24 47.3783 83.536C46.0343 82.832 44.9303 81.712 44.0663 80.176C43.2023 78.64 42.7703 76.608 42.7703 74.08C42.7703 70.368 43.5863 67.6 45.2183 65.776C46.8503 63.952 48.9623 63.04 51.5543 63.04C53.3463 63.04 54.8823 63.648 56.1623 64.864C57.4423 66.048 58.0823 67.712 58.0823 69.856L58.2263 69.808V67.12C58.2263 66 58.5783 65.024 59.2823 64.192C60.0183 63.328 61.1543 62.896 62.6903 62.896C64.3223 62.896 65.4903 63.328 66.1943 64.192C66.9303 65.024 67.2983 66 67.2983 67.12L67.3463 82.24C67.3783 85.568 66.9623 88.4 66.0983 90.736C65.2663 93.072 63.8903 94.848 61.9703 96.064C60.0823 97.28 57.5543 97.888 54.3863 97.888ZM50.8343 73.264C50.8343 74.992 51.9863 75.856 54.2903 75.856C55.7943 75.856 56.8503 75.648 57.4583 75.232C58.0663 74.816 58.3703 74.16 58.3703 73.264C58.3703 72.336 58.0503 71.696 57.4103 71.344C56.8023 70.992 55.7463 70.816 54.2422 70.816C53.1543 70.816 52.3063 70.992 51.6983 71.344C51.1223 71.696 50.8343 72.336 50.8343 73.264ZM77.4604 88C75.2204 88 73.3964 87.152 71.9884 85.456C70.5804 83.76 69.8604 81.376 69.8284 78.304L69.7804 67.216C69.7804 65.84 70.1964 64.768 71.0284 64C71.8924 63.2 73.0604 62.8 74.5324 62.8C75.9404 62.8 77.0764 63.2 77.9404 64C78.8044 64.768 79.2364 65.84 79.2364 67.216V77.248C79.2364 79.648 80.1804 80.848 82.0684 80.848C82.9964 80.848 83.6204 80.512 83.9404 79.84C84.2604 79.136 84.4204 78.24 84.4204 77.152V67.216C84.4204 65.968 84.8524 64.928 85.7164 64.096C86.5804 63.232 87.7004 62.8 89.0764 62.8C90.5164 62.8 91.6204 63.232 92.3884 64.096C93.1884 64.928 93.5884 65.968 93.5884 67.216V82.96C93.5884 84.496 93.2364 85.728 92.5324 86.656C91.8604 87.552 90.7564 88 89.2204 88C87.7164 88 86.5324 87.552 85.6684 86.656C84.8364 85.728 84.4204 84.496 84.4204 82.96V82.144H83.5564C83.5564 84 82.9964 85.44 81.8764 86.464C80.7884 87.488 79.3164 88 77.4604 88ZM105.389 97.888C103.245 97.888 101.485 97.536 100.109 96.832C98.7653 96.128 97.7093 95.2 96.9413 94.048C96.3013 93.056 95.9333 92.016 95.8373 90.928C95.7733 89.84 95.9813 88.832 96.4613 87.904C96.9413 86.944 97.6613 86.208 98.6213 85.696C99.6133 85.152 100.605 84.944 101.597 85.072C102.589 85.168 103.501 85.536 104.333 86.176C105.165 86.784 105.805 87.584 106.253 88.576C106.733 89.632 107.213 90.4 107.693 90.88C108.205 91.392 108.861 91.504 109.661 91.216C110.429 90.96 110.701 90.256 110.477 89.104C110.285 87.952 109.869 86.592 109.229 85.024H107.453C106.077 85.024 104.701 84.528 103.325 83.536C101.949 82.544 100.797 80.976 99.8693 78.832L95.9333 69.712C95.3253 68.272 95.2613 66.944 95.7413 65.728C96.2533 64.512 97.1653 63.632 98.4773 63.088C99.6933 62.544 100.893 62.512 102.077 62.992C103.261 63.472 104.189 64.496 104.861 66.064L108.509 74.56C109.117 75.936 109.773 76.928 110.477 77.536C111.213 78.144 111.981 78.24 112.781 77.824C113.485 77.44 113.869 76.912 113.933 76.24C113.997 75.536 113.661 74.688 112.925 73.696C112.605 73.248 112.221 72.752 111.773 72.208C111.357 71.664 110.973 71.04 110.621 70.336C110.301 69.6 110.141 68.784 110.141 67.888C110.141 66.384 110.653 65.152 111.677 64.192C112.701 63.2 114.045 62.704 115.709 62.704C117.213 62.704 118.413 63.184 119.309 64.144C120.237 65.104 120.701 66.352 120.701 67.888C120.701 68.976 120.573 70.176 120.317 71.488C120.061 72.8 119.773 74.016 119.453 75.136L115.997 87.76C115.485 89.648 114.813 91.36 113.981 92.896C113.149 94.432 112.045 95.648 110.669 96.544C109.293 97.44 107.533 97.888 105.389 97.888ZM121.526 75.52C121.526 72.992 122.022 70.768 123.014 68.848C124.038 66.928 125.478 65.424 127.334 64.336C129.222 63.248 131.462 62.704 134.054 62.704C136.07 62.704 137.878 63.072 139.478 63.808C141.11 64.544 142.39 65.536 143.318 66.784C144.246 68 144.71 69.344 144.71 70.816C144.71 72.352 144.262 73.44 143.366 74.08C142.47 74.72 141.142 75.04 139.382 75.04H129.302C129.302 75.872 129.622 76.56 130.262 77.104C130.934 77.648 132.054 77.92 133.622 77.92C134.422 77.92 135.158 77.84 135.83 77.68C136.534 77.52 137.238 77.376 137.942 77.248C138.678 77.088 139.494 77.008 140.39 77.008C141.67 77.008 142.726 77.472 143.558 78.4C144.39 79.296 144.806 80.544 144.806 82.144C144.806 84.032 143.83 85.504 141.878 86.56C139.958 87.616 137.43 88.144 134.294 88.144C132.086 88.144 130.006 87.712 128.054 86.848C126.134 85.984 124.566 84.624 123.35 82.768C122.134 80.88 121.526 78.464 121.526 75.52ZM137.078 73.456C137.558 73.456 137.718 73.232 137.558 72.784C137.43 72.336 137.046 71.872 136.406 71.392C135.766 70.912 134.838 70.672 133.622 70.672C132.214 70.672 131.158 70.976 130.454 71.584C129.782 72.192 129.446 72.816 129.446 73.456H137.078ZM151.64 88C150.232 88 149.096 87.584 148.232 86.752C147.4 85.888 146.984 84.832 146.984 83.584V67.696C146.984 66.352 147.384 65.216 148.184 64.288C148.984 63.36 150.136 62.896 151.64 62.896C153.112 62.896 154.232 63.36 155 64.288C155.768 65.216 156.152 66.384 156.152 67.792V70.192H157.016C157.016 68.368 157.336 66.928 157.976 65.872C158.648 64.816 159.496 64.064 160.52 63.616C161.544 63.136 162.568 62.896 163.592 62.896C166.056 62.896 167.864 63.792 169.016 65.584C170.168 67.344 170.744 69.856 170.744 73.12V83.584C170.744 84.832 170.328 85.888 169.496 86.752C168.664 87.584 167.544 88 166.136 88C164.696 88 163.544 87.584 162.68 86.752C161.848 85.888 161.432 84.832 161.432 83.584V75.088C161.432 73.936 161.208 73.04 160.76 72.4C160.344 71.76 159.72 71.44 158.888 71.44C157.928 71.44 157.224 71.792 156.776 72.496C156.36 73.2 156.152 74.096 156.152 75.184V83.584C156.152 84.832 155.752 85.888 154.952 86.752C154.152 87.584 153.048 88 151.64 88Z" fill="#ECA6AF"/>
</g>
<defs>
<filter id="filter0_dii_53_3" x="0.0719995" y="-2.00806" width="180.272" height="116.496" filterUnits="userSpaceOnUse" color-interpolation-filters="sRGB">
<feFlood flood-opacity="0" result="BackgroundImageFix"/>
<feColorMatrix in="SourceAlpha" type="matrix" values="0 0 0 0 0 0 0 0 0 0 0 0 0 0 0 0 0 0 127 0" result="hardAlpha"/>
<feOffset dy="7"/>
<feGaussianBlur stdDeviation="4.8"/>
<feComposite in2="hardAlpha" operator="out"/>
<feColorMatrix type="matrix" values="0 0 0 0 0 0 0 0 0 0 0 0 0 0 0 0 0 0 0.26 0"/>
<feBlend mode="normal" in2="BackgroundImageFix" result="effect1_dropShadow_53_3"/>
<feBlend mode="normal" in="SourceGraphic" in2="effect1_dropShadow_53_3" result="shape"/>
<feColorMatrix in="SourceAlpha" type="matrix" values="0 0 0 0 0 0 0 0 0 0 0 0 0 0 0 0 0 0 127 0" result="hardAlpha"/>
<feOffset dx="-4" dy="5"/>
<feGaussianBlur stdDeviation="4.35"/>
<feComposite in2="hardAlpha" operator="arithmetic" k2="-1" k3="1"/>
<feColorMatrix type="matrix" values="0 0 0 0 1 0 0 0 0 1 0 0 0 0 1 0 0 0 1 0"/>
<feBlend mode="normal" in2="shape" result="effect2_innerShadow_53_3"/>
<feColorMatrix in="SourceAlpha" type="matrix" values="0 0 0 0 0 0 0 0 0 0 0 0 0 0 0 0 0 0 127 0" result="hardAlpha"/>
<feOffset dy="-5"/>
<feGaussianBlur stdDeviation="5.75"/>
<feComposite in2="hardAlpha" operator="arithmetic" k2="-1" k3="1"/>
<feColorMatrix type="matrix" values="0 0 0 0 0.951228 0 0 0 0 0.835201 0 0 0 0 0.849705 0 0 0 1 0"/>
<feBlend mode="normal" in2="effect2_innerShadow_53_3" result="effect3_innerShadow_53_3"/>
</filter>
</defs>
</svg>
